<svg width="112" height="50" viewBox="0 0 112 50" fill="none" xmlns="http://www.w3.org/2000/svg">
<path fill-rule="evenodd" clip-rule="evenodd" d="M0 1H18.1671C22.0694 1 25.1335 1.29915 27.3014 1.93769L27.304 1.93844C30.2008 2.80017 32.6914 4.33608 34.7596 6.5381C36.8158 8.72736 38.3666 11.3999 39.4232 14.5342C40.4851 17.6626 41 21.4768 41 25.9487C41 29.8954 40.5147 33.3448 39.5177 36.2758C38.3127 39.8157 36.5765 42.7274 34.2867 44.9719C32.5207 46.7086 30.1732 48.0264 27.2949 48.9584L27.2912 48.9596C25.0802 49.6658 22.1941 50 18.6749 50H0V1ZM33.5929 44.2509C35.7513 42.1354 37.4124 39.3682 38.5762 35.9492C39.5284 33.1499 40.0045 29.8164 40.0045 25.9487C40.0045 21.5468 39.4967 17.8501 38.481 14.8585C37.4653 11.8455 35.9841 9.30264 34.0373 7.22989C32.0906 5.15714 29.7523 3.71476 27.0227 2.90276C24.9913 2.30444 22.0394 2.00528 18.1671 2.00528H0.99548V48.9947H18.6749C22.1452 48.9947 24.9172 48.6635 26.9909 48.0011C29.7629 47.1036 31.9636 45.8535 33.5929 44.2509ZM22.8413 39.6547L22.8454 39.6537C24.2351 39.3028 25.3383 38.7208 26.192 37.932L26.1997 37.9249C27.0224 37.1806 27.7772 35.8736 28.3873 33.8618C28.9812 31.882 29.2965 29.1202 29.2965 25.5321C29.2965 21.9371 28.9797 19.2743 28.3943 17.481C27.7966 15.6503 26.9827 14.2923 25.99 13.3456C24.9973 12.3988 23.7191 11.737 22.1141 11.3856L22.1058 11.3837C20.9188 11.1131 18.4569 10.9597 14.6121 10.9597H11.3861V40.0724H17.4053C20.0202 40.0724 21.8069 39.9206 22.8413 39.6547ZM10.3907 41.0777V9.95438H14.6121C18.4422 9.95438 21.0131 10.104 22.3251 10.4031C24.0814 10.7878 25.5309 11.525 26.6735 12.6148C27.8162 13.7046 28.7049 15.2217 29.3397 17.1663C29.9745 19.1108 30.2919 21.8994 30.2919 25.5321C30.2919 29.1647 29.9745 32.0388 29.3397 34.1543C28.7049 36.2484 27.8797 37.7549 26.864 38.6737C25.8694 39.5926 24.6104 40.2443 23.0868 40.6289C21.923 40.9281 20.0292 41.0777 17.4053 41.0777H10.3907Z" fill="#333333"/>
<path fill-rule="evenodd" clip-rule="evenodd" d="M46.1306 0L40.7608 9.50233L50.0503 14.9819L49.3124 12.1617C52.0555 10.7828 55.1508 10.3154 58.1662 10.8253C61.1905 11.3367 63.9825 12.8054 66.15 15.0253L72.5888 8.43097C69.076 4.83329 64.551 2.45289 59.6495 1.6241C55.3503 0.897169 50.9509 1.39591 46.928 3.04789L46.1306 0ZM42.8382 18.5668C41.3932 21.3354 40.8313 24.4981 41.2314 27.6106C41.6249 30.6717 42.9295 33.5332 44.9659 35.8065L47.3711 34.3843L44.5629 45.0186L34.1664 42.1922L36.9627 40.5388C34.4021 37.1452 32.7535 33.1069 32.2034 28.8278C31.555 23.7834 32.4656 18.6578 34.8075 14.1706L42.8382 18.5668ZM61.831 39.335C63.0297 38.7788 64.3255 37.8276 65.5167 36.6977V31.7999H58.812V35.492L51.7297 27.722L58.812 19.952V23.5769H75V40.156L74.9996 40.1559L74.9998 40.1561C72.8438 42.8667 69.1437 46.18 65.5891 47.8295C61.064 49.9293 56.0103 50.5247 51.1379 49.5321L52.9143 40.3855C55.9207 40.998 59.039 40.6306 61.831 39.335Z" fill="#018D18"/>
<path fill-rule="evenodd" clip-rule="evenodd" d="M46.1306 0L40.7608 9.50233L50.0503 14.9819L49.3124 12.1617C52.0555 10.7828 55.1508 10.3154 58.1662 10.8253C61.1905 11.3367 63.9825 12.8054 66.15 15.0253L72.5888 8.43097C72.3547 8.19115 72.116 7.95673 71.873 7.72783C68.471 4.52283 64.2243 2.39765 59.6495 1.6241C55.6802 0.952946 51.6254 1.32659 47.8605 2.68802C47.5476 2.80117 47.2367 2.92113 46.928 3.04789L46.1306 0ZM71.1712 8.4466C67.9162 5.39126 63.8583 3.36508 59.4879 2.62611C55.3681 1.92949 51.1521 2.40743 47.297 3.99051L46.2595 4.41657L45.7914 2.62761L42.1168 9.13022L48.4738 12.88L48.1436 11.6179L48.8755 11.25C51.804 9.77789 55.1086 9.27896 58.3277 9.82328C61.2294 10.3139 63.9307 11.63 66.1278 13.6118L71.1712 8.4466ZM44.9659 35.8065C42.9295 33.5332 41.6249 30.6717 41.2314 27.6106C40.8313 24.4981 41.3932 21.3354 42.8382 18.5668L34.8075 14.1706C34.6514 14.4698 34.5017 14.7717 34.3583 15.0763C32.3512 19.3408 31.5982 24.1197 32.2034 28.8278C32.7098 32.7666 34.1468 36.5013 36.3691 39.7171C36.5612 39.9949 36.759 40.2689 36.9627 40.5388L34.1664 42.1922L44.5629 45.0186L47.3711 34.3843L44.9659 35.8065ZM45.7868 36.4938L44.7729 37.0933L44.2352 36.4931C42.0612 34.066 40.6683 31.0112 40.2482 27.7431C39.8644 24.7569 40.31 21.7274 41.5239 18.9989L35.2336 15.5555C33.3237 19.6324 32.6084 24.1976 33.1866 28.6953C33.7137 32.7959 35.2935 36.6657 37.7473 39.9178L38.4411 40.8373L36.7423 41.8418L43.8633 43.7776L45.7868 36.4938ZM66.5083 37.1413L66.1905 37.4427C64.9496 38.6199 63.5659 39.6449 62.2403 40.26C59.5615 41.5031 56.6014 41.9458 53.6996 41.5482L52.3081 48.7125C56.6719 49.4009 61.1451 48.7767 65.1798 46.9044C68.4433 45.3901 71.8963 42.3574 74.0084 39.7899V24.5925H57.8204V22.5282L53.0863 27.722L57.8204 32.9158V30.7843H66.5083V37.1413ZM58.812 35.492L51.7297 27.722L58.812 19.952V23.5769H75V40.1553C74.9999 40.1555 74.9996 40.1564 74.9994 40.1566C74.9986 40.1577 74.9977 40.1588 74.9969 40.1599C74.8518 40.3421 74.6998 40.5271 74.5413 40.7142C72.3435 43.3077 68.9031 46.2917 65.5891 47.8295C61.3656 49.7893 56.6817 50.4386 52.1145 49.7095C51.7883 49.6574 51.4627 49.5983 51.1379 49.5321L52.9143 40.3855C55.9207 40.998 59.039 40.6306 61.831 39.335C63.0297 38.7788 64.3255 37.8276 65.5167 36.6977V31.7999H58.812V35.492Z" fill="#333333"/>
</svg>
