<svg width="112" height="50" viewBox="0 0 112 50" fill="none" xmlns="http://www.w3.org/2000/svg">
<path fill-rule="evenodd" clip-rule="evenodd" d="M46.1309 0L40.7607 9.50244L50.0508 14.9819L49.3125 12.1616C52.0557 10.7827 55.1504 10.3154 58.166 10.8252C61.1904 11.3369 63.9824 12.8057 66.1504 15.0254L72.5889 8.43115C72.3613 8.19824 72.1289 7.97021 71.8936 7.74756C71.6738 7.54053 71.4521 7.33789 71.2256 7.13965C67.9395 4.2627 63.9385 2.34961 59.6494 1.62402C55.6787 0.952637 51.627 1.32568 47.8604 2.68799C47.5488 2.80078 47.2354 2.92139 46.9277 3.04785L46.1309 0ZM42.8379 18.5669C41.3936 21.3354 40.8311 24.498 41.2314 27.6104C41.625 30.6719 42.9297 33.5332 44.9658 35.8066L47.3711 34.3843L44.5625 45.0186L36.2158 42.7495C35.8496 43.2451 35.4639 43.7178 35.0586 44.167C34.8086 44.4443 34.5518 44.7124 34.2871 44.9717C32.5205 46.7085 30.1729 48.0264 27.291 48.9595C25.0801 49.666 22.1943 50 18.6748 50H0V1H18.167C22.0693 1 25.1338 1.29932 27.3037 1.93848C30.2012 2.80029 32.6914 4.33594 34.7598 6.53809C36.8154 8.72754 38.3662 11.3999 39.4229 14.5342C39.6963 15.3398 39.9346 16.1914 40.1357 17.0874L42.8379 18.5669ZM38.9541 16.4404C38.8115 15.8926 38.6533 15.3657 38.4814 14.8584C37.4648 11.8457 35.9844 9.30273 34.0371 7.22998C32.0908 5.15723 29.752 3.71484 27.0225 2.90283C24.9912 2.3042 22.0391 2.00537 18.167 2.00537H0.995117V48.9946H18.6748C22.1455 48.9946 24.917 48.6636 26.9912 48.001C29.7627 47.1035 31.9639 45.8535 33.5928 44.251C34.1543 43.7007 34.6826 43.106 35.1768 42.4673L34.166 42.1924L36.2168 40.98C36.3818 40.7192 36.542 40.4521 36.6973 40.1792C36.5859 40.0264 36.4766 39.8726 36.3691 39.7173C36.1855 39.4512 36.0068 39.1812 35.834 38.9082C33.915 35.8818 32.668 32.4409 32.2031 28.8276C31.5977 24.1211 32.3525 19.3398 34.3584 15.0762C34.3682 15.0562 34.376 15.0391 34.3857 15.019C34.5205 14.7339 34.6611 14.4507 34.8076 14.1704L38.9541 16.4404ZM63.7939 38.146C64.377 37.7173 64.958 37.2271 65.5166 36.6978V31.7998H58.8125V35.4922L51.7295 27.7222L58.8125 19.9521V23.5771H75V40.1562C74.7305 40.4951 74.4365 40.8433 74.1221 41.1963C71.9209 43.6689 68.6992 46.3862 65.5889 47.8296C61.3691 49.7876 56.6895 50.438 52.125 49.7114C51.7949 49.6587 51.4658 49.5991 51.1377 49.5322L52.9141 40.3857C55.9209 40.998 59.0391 40.6304 61.8311 39.335C62.4678 39.0396 63.1318 38.6323 63.7939 38.146ZM22.8408 39.6548C24.2354 39.3027 25.3379 38.7207 26.1924 37.9321L26.1992 37.9248C26.5557 37.6025 26.8994 37.1748 27.2246 36.6299C27.6494 35.9165 28.042 35.0024 28.3877 33.8618C28.9814 31.8818 29.2969 29.1201 29.2969 25.5322C29.2969 21.937 28.9795 19.2744 28.3945 17.481C28.0449 16.4092 27.6211 15.4995 27.1299 14.7393C26.7822 14.2012 26.4014 13.7383 25.9902 13.3457C24.9971 12.3989 23.7188 11.7368 22.1143 11.3857L22.1055 11.3838C20.9189 11.1133 18.457 10.9595 14.6123 10.9595H11.3857V40.0723H17.4053C19.3193 40.0723 20.7881 39.9907 21.8447 39.8433C22.2314 39.7891 22.5635 39.7261 22.8408 39.6548ZM10.3906 41.0776V9.95459H14.6123C18.4424 9.95459 21.0127 10.104 22.3252 10.4033C24.0811 10.7876 25.5312 11.5249 26.6738 12.6147C27.8164 13.7046 28.7051 15.2217 29.3398 17.1665C29.9746 19.1108 30.292 21.8994 30.292 25.5322C30.292 29.1646 29.9746 32.0386 29.3398 34.1543C28.7051 36.2485 27.8799 37.7549 26.8643 38.6738C25.8691 39.5928 24.6104 40.2441 23.0869 40.6289C22.6826 40.7329 22.1904 40.8188 21.6104 40.8867C20.5205 41.0137 19.1182 41.0776 17.4053 41.0776H10.3906Z" fill="#AAAAAA"/>
</svg>
