<svg width="58" height="34" viewBox="0 0 58 34" fill="none" xmlns="http://www.w3.org/2000/svg">
<path fill-rule="evenodd" clip-rule="evenodd" d="M1 2C1.55225 2 2 1.55225 2 1C2 0.447754 1.55225 0 1 0C0.871094 0 0.748047 0.0244141 0.634766 0.0688477C0.515625 0.115723 0.407227 0.18457 0.31543 0.270996C0.121094 0.453613 0 0.712402 0 1C0 1.55225 0.447754 2 1 2ZM25 2C25.2793 2 25.5317 1.88525 25.7134 1.70068C25.8906 1.52051 26 1.27295 26 1C26 0.447754 25.5522 0 25 0C24.4478 0 24 0.447754 24 1C24 1.55225 24.4478 2 25 2ZM33 2L33.064 1.99805C33.3047 1.98291 33.522 1.88281 33.6865 1.72705C33.8794 1.54443 34 1.28613 34 1C34 0.447754 33.5522 0 33 0C32.4478 0 32 0.447754 32 1C32 1.55225 32.4478 2 33 2ZM41.6616 1.75C41.4854 1.90576 41.2539 2 41 2C40.4478 2 40 1.55225 40 1C40 0.447754 40.4478 0 41 0C41.5522 0 42 0.447754 42 1C42 1.29834 41.8691 1.56641 41.6616 1.75ZM49.9009 1.43457C49.9644 1.30322 50 1.15576 50 1C50 0.931152 49.9932 0.863281 49.9795 0.797852C49.9692 0.747559 49.9551 0.698242 49.9375 0.650879L49.9209 0.610352L49.8921 0.547852C49.8813 0.526855 49.8701 0.505859 49.8579 0.48584C49.8447 0.463867 49.8306 0.442383 49.8159 0.421875L49.7773 0.370605L49.7427 0.330078L49.7124 0.29834C49.689 0.274414 49.6646 0.251953 49.6392 0.230469L49.5972 0.197266C49.5762 0.181641 49.5547 0.166992 49.5322 0.152832C49.5063 0.136719 49.48 0.12207 49.4526 0.108398C49.4136 0.0883789 49.373 0.0712891 49.3315 0.0566406C49.228 0.0200195 49.1162 0 49 0C48.4478 0 48 0.447754 48 1C48 1.55225 48.4478 2 49 2C49.1396 2 49.2725 1.97119 49.3931 1.91943C49.4692 1.88721 49.5405 1.84521 49.6055 1.7959C49.7305 1.70068 49.832 1.57715 49.9009 1.43457ZM33.6914 17.7227C33.5117 17.8945 33.2681 18 33 18C32.4478 18 32 17.5522 32 17C32 16.4478 32.4478 16 33 16C33.5522 16 34 16.4478 34 17C34 17.2842 33.8813 17.5405 33.6914 17.7227ZM49 18C49.5522 18 50 17.5522 50 17C50 16.6792 49.8486 16.3936 49.6138 16.2104C49.5239 16.1406 49.4219 16.0859 49.3115 16.0498C49.2139 16.0176 49.1089 16 49 16C48.4478 16 48 16.4478 48 17C48 17.5522 48.4478 18 49 18ZM34 33C34 33.5522 33.5522 34 33 34C32.4478 34 32 33.5522 32 33C32 32.4478 32.4478 32 33 32C33.5522 32 34 32.4478 34 33ZM49 34C49.5522 34 50 33.5522 50 33C50 32.4478 49.5522 32 49 32C48.4478 32 48 32.4478 48 33C48 33.5522 48.4478 34 49 34ZM58 1C58 1.55225 57.5522 2 57 2C56.4478 2 56 1.55225 56 1C56 0.447754 56.4478 0 57 0C57.127 0 57.2485 0.0239258 57.3604 0.0668945C57.4204 0.090332 57.478 0.119141 57.5322 0.15332C57.5615 0.171875 57.5898 0.191895 57.6172 0.213379C57.8501 0.396484 58 0.680664 58 1ZM25 18C25.1816 18 25.3521 17.9517 25.499 17.8667C25.5771 17.8218 25.6484 17.7666 25.7114 17.7026C25.8896 17.522 26 17.2739 26 17C26 16.4478 25.5522 16 25 16C24.4478 16 24 16.4478 24 17C24 17.5522 24.4478 18 25 18ZM41.1235 17.9927C41.083 17.9976 41.042 18 41 18C40.4478 18 40 17.5522 40 17C40 16.4478 40.4478 16 41 16C41.5522 16 42 16.4478 42 17C42 17.2935 41.873 17.5576 41.6714 17.7407C41.6177 17.7896 41.5586 17.8325 41.4956 17.8687C41.4551 17.8916 41.4126 17.9121 41.3687 17.9297C41.312 17.9521 41.2529 17.9697 41.1914 17.9814L41.1235 17.9927ZM57 18C57.5522 18 58 17.5522 58 17C58 16.6665 57.8364 16.3711 57.5854 16.1895C57.4209 16.0703 57.2188 16 57 16C56.4478 16 56 16.4478 56 17C56 17.5522 56.4478 18 57 18ZM33.6074 9.79492C33.5171 9.86328 33.4155 9.91699 33.3052 9.95264C33.209 9.9834 33.1064 10 33 10C32.4478 10 32 9.55225 32 9C32 8.44775 32.4478 8 33 8C33.5522 8 34 8.44775 34 9C34 9.06592 33.9937 9.13037 33.9814 9.19287C33.9766 9.21777 33.9707 9.24268 33.9639 9.26709C33.9565 9.29248 33.9487 9.31738 33.9399 9.3418C33.8867 9.48828 33.8003 9.61914 33.6895 9.72461L33.6436 9.76562L33.6074 9.79492ZM49 10C49.5522 10 50 9.55225 50 9C50 8.68555 49.855 8.40527 49.6284 8.22168C49.4565 8.08301 49.2378 8 49 8C48.4478 8 48 8.44775 48 9C48 9.55225 48.4478 10 49 10ZM25.7124 9.70166C25.5308 9.88574 25.2788 10 25 10C24.4478 10 24 9.55225 24 9C24 8.44775 24.4478 8 25 8C25.5522 8 26 8.44775 26 9C26 9.11182 25.9814 9.21924 25.9478 9.31982C25.9248 9.38721 25.895 9.45166 25.8594 9.51172C25.8179 9.58105 25.7686 9.64453 25.7124 9.70166ZM41 10C41.2563 10 41.4902 9.90332 41.6675 9.74463C41.8716 9.56152 42 9.2959 42 9C42 8.44775 41.5522 8 41 8C40.4478 8 40 8.44775 40 9C40 9.55225 40.4478 10 41 10ZM58 9C58 9.55225 57.5522 10 57 10C56.4478 10 56 9.55225 56 9C56 8.44775 56.4478 8 57 8C57.2266 8 57.4355 8.0752 57.6035 8.20264C57.8442 8.38525 58 8.67432 58 9ZM33 26C33.269 26 33.5132 25.8936 33.6929 25.7207C33.8823 25.5391 34 25.2832 34 25C34 24.4478 33.5522 24 33 24C32.4478 24 32 24.4478 32 25C32 25.5522 32.4478 26 33 26ZM50 25C50 25.5522 49.5522 26 49 26C48.4478 26 48 25.5522 48 25C48 24.4478 48.4478 24 49 24C49.2217 24 49.4268 24.0723 49.5923 24.1943C49.6973 24.2715 49.7866 24.3687 49.8545 24.4805C49.9468 24.6318 50 24.8096 50 25ZM25 26C25.2783 26 25.5298 25.8862 25.7109 25.7031C25.8008 25.6123 25.873 25.5049 25.9229 25.3853C25.9512 25.3174 25.9727 25.2456 25.9854 25.1709C25.9951 25.1152 26 25.0581 26 25C26 24.4478 25.5522 24 25 24C24.4478 24 24 24.4478 24 25C24 25.5522 24.4478 26 25 26ZM41.6753 25.7373C41.4971 25.9004 41.2603 26 41 26C40.4478 26 40 25.5522 40 25C40 24.4478 40.4478 24 41 24C41.5522 24 42 24.4478 42 25C42 25.1294 41.9756 25.2529 41.9307 25.3662C41.8745 25.5088 41.7866 25.6357 41.6753 25.7373ZM57 26C57.5522 26 58 25.5522 58 25C58 24.6548 57.8252 24.3506 57.5591 24.1709C57.3994 24.063 57.207 24 57 24C56.4478 24 56 24.4478 56 25C56 25.5522 56.4478 26 57 26ZM26 33C26 33.5522 25.5522 34 25 34C24.4478 34 24 33.5522 24 33C24 32.4478 24.4478 32 25 32C25.5522 32 26 32.4478 26 33ZM41 34C41.5522 34 42 33.5522 42 33C42 32.4478 41.5522 32 41 32C40.4478 32 40 32.4478 40 33C40 33.5522 40.4478 34 41 34ZM58 33C58 33.5522 57.5522 34 57 34C56.4478 34 56 33.5522 56 33C56 32.4478 56.4478 32 57 32C57.1899 32 57.3677 32.0532 57.519 32.1455C57.8076 32.3208 58 32.6377 58 33ZM10 1C10 1.55225 9.55225 2 9 2C8.44775 2 8 1.55225 8 1C8 0.710938 8.12256 0.450684 8.31836 0.268066C8.34912 0.239258 8.38184 0.212402 8.41602 0.187988C8.44678 0.166016 8.479 0.145508 8.51221 0.126953L8.57715 0.0932617C8.70557 0.0332031 8.84912 0 9 0C9.55225 0 10 0.447754 10 1ZM9 18C9.30176 18 9.57227 17.8662 9.75537 17.6548C9.81982 17.5811 9.87354 17.4976 9.91406 17.4067C9.93848 17.3516 9.9585 17.2935 9.97266 17.2334C9.99072 17.1587 10 17.0806 10 17C10 16.4478 9.55225 16 9 16C8.44775 16 8 16.4478 8 17C8 17.5522 8.44775 18 9 18ZM10 33C10 33.5522 9.55225 34 9 34C8.44775 34 8 33.5522 8 33C8 32.4478 8.44775 32 9 32C9.33447 32 9.63086 32.1646 9.8125 32.417C9.93066 32.5811 10 32.7822 10 33ZM17 2C17.2939 2 17.5581 1.87305 17.7412 1.6709C17.9019 1.49365 18 1.2583 18 1C18 0.447754 17.5522 0 17 0C16.7388 0 16.5005 0.100098 16.3223 0.264648C16.2866 0.297363 16.2534 0.33252 16.2227 0.370117C16.188 0.412598 16.1567 0.458496 16.1294 0.506836C16.1157 0.53125 16.103 0.556152 16.0913 0.582031C16.0327 0.708984 16 0.850586 16 1C16 1.55225 16.4478 2 17 2ZM1.7793 17.627C1.5957 17.8545 1.31494 18 1 18C0.447754 18 0 17.5522 0 17C0 16.6885 0.142578 16.4102 0.366211 16.2266C0.538574 16.085 0.759277 16 1 16C1.55225 16 2 16.4478 2 17C2 17.2373 1.91748 17.4556 1.7793 17.627ZM17 18C17.2896 18 17.5503 17.877 17.7329 17.6802L17.7739 17.6333C17.7959 17.6064 17.8164 17.5786 17.8354 17.5498C17.8691 17.499 17.8979 17.4448 17.9219 17.3877C17.9722 17.2686 18 17.1377 18 17C18 16.4478 17.5522 16 17 16C16.4478 16 16 16.4478 16 17C16 17.5522 16.4478 18 17 18ZM9.76221 9.64746C9.73096 9.68457 9.69727 9.71924 9.66064 9.75146C9.63867 9.77051 9.61572 9.78906 9.5918 9.80615C9.57422 9.81934 9.55615 9.83203 9.5376 9.84375C9.38232 9.94287 9.19775 10 9 10C8.44775 10 8 9.55225 8 9C8 8.86475 8.02686 8.73535 8.07568 8.61768C8.12109 8.50879 8.18457 8.41016 8.2627 8.32471C8.28906 8.2959 8.31689 8.26904 8.34619 8.24365C8.42529 8.1748 8.51562 8.11865 8.61377 8.07715C8.73242 8.02734 8.86279 8 9 8C9.55225 8 10 8.44775 10 9C10 9.03223 9.99854 9.06396 9.99561 9.09521C9.9917 9.13965 9.98438 9.18311 9.97461 9.22607C9.93799 9.38428 9.86377 9.52783 9.76221 9.64746ZM1 10C1.55225 10 2 9.55225 2 9C2 8.44775 1.55225 8 1 8C0.746582 8 0.515137 8.09424 0.339355 8.24951C0.131348 8.43262 0 8.70117 0 9C0 9.55225 0.447754 10 1 10ZM17.7368 9.67627C17.5537 9.87549 17.2915 10 17 10C16.4478 10 16 9.55225 16 9C16 8.44775 16.4478 8 17 8C17.5522 8 18 8.44775 18 9C18 9.26074 17.9004 9.49805 17.7368 9.67627ZM9 26C9.29883 26 9.56689 25.8691 9.75049 25.6611C9.90576 25.4849 10 25.2534 10 25C10 24.4478 9.55225 24 9 24C8.44775 24 8 24.4478 8 25C8 25.5522 8.44775 26 9 26ZM1.771 25.6367C1.74268 25.6709 1.71191 25.7031 1.6792 25.7334C1.5957 25.8115 1.49854 25.875 1.3916 25.9204C1.27148 25.9717 1.13916 26 1 26C0.447754 26 0 25.5522 0 25C0 24.4478 0.447754 24 1 24C1.55225 24 2 24.4478 2 25C2 25.2417 1.91406 25.4639 1.771 25.6367ZM17 26C17.2881 26 17.5479 25.8779 17.7305 25.6831C17.8979 25.5044 18 25.2642 18 25C18 24.4478 17.5522 24 17 24C16.4478 24 16 24.4478 16 25C16 25.5522 16.4478 26 17 26ZM2 33C2 33.5522 1.55225 34 1 34C0.447754 34 0 33.5522 0 33C0 32.4478 0.447754 32 1 32C1.15674 32 1.30518 32.0361 1.43701 32.1006C1.77002 32.2627 2 32.6045 2 33ZM17 34C17.5522 34 18 33.5522 18 33C18 32.4478 17.5522 32 17 32C16.4478 32 16 32.4478 16 33C16 33.5522 16.4478 34 17 34Z" fill="white"/>
</svg>
