<svg width="154" height="42" viewBox="0 0 154 42" fill="none" xmlns="http://www.w3.org/2000/svg">
<path fill-rule="evenodd" clip-rule="evenodd" d="M1.79834 1.60254C1.9248 1.43506 2 1.22607 2 1C2 0.447754 1.55225 0 1 0C0.447754 0 0 0.447754 0 1C0 1.55225 0.447754 2 1 2C1.32617 2 1.61572 1.84424 1.79834 1.60254ZM9.96777 1.25195C9.98877 1.17139 10 1.08691 10 1C10 0.447754 9.55225 0 9 0C8.44775 0 8 0.447754 8 1C8 1.55225 8.44775 2 9 2C9.0752 2 9.14893 1.9917 9.21924 1.97607L9.25977 1.96582L9.2998 1.9541L9.35059 1.93652C9.4209 1.91016 9.4873 1.87598 9.54932 1.83545C9.58594 1.81152 9.62109 1.78516 9.6543 1.75635C9.70215 1.71484 9.74609 1.66895 9.78516 1.61914C9.80713 1.5918 9.82715 1.56348 9.8457 1.53369C9.86768 1.49902 9.8877 1.4624 9.90527 1.4248C9.93115 1.36963 9.95215 1.31201 9.96777 1.25195ZM18 1C18 1.23926 17.916 1.45898 17.7759 1.63086C17.6675 1.76367 17.5264 1.86816 17.3643 1.93164C17.2515 1.97559 17.1284 2 17 2C16.4478 2 16 1.55225 16 1C16 0.447754 16.4478 0 17 0C17.5522 0 18 0.447754 18 1ZM25.7686 1.64014C25.9131 1.4668 26 1.24365 26 1C26 0.447754 25.5522 0 25 0C24.4478 0 24 0.447754 24 1C24 1.55225 24.4478 2 25 2C25.3086 2 25.585 1.85986 25.7686 1.64014ZM10 17C10 17.5522 9.55225 18 9 18C8.44775 18 8 17.5522 8 17C8 16.4478 8.44775 16 9 16C9.29785 16 9.56494 16.1299 9.74805 16.3364C9.90479 16.5132 10 16.7456 10 17ZM25 18C25.5522 18 26 17.5522 26 17C26 16.7261 25.8896 16.4775 25.7109 16.2969C25.5298 16.1138 25.2783 16 25 16C24.4478 16 24 16.4478 24 17C24 17.5522 24.4478 18 25 18ZM10 33C10 33.5522 9.55225 34 9 34C8.94287 34 8.88721 33.9951 8.83301 33.9858L8.78662 33.9771C8.75684 33.9702 8.72803 33.9624 8.69922 33.9536C8.57373 33.9141 8.45898 33.8506 8.36035 33.7686C8.14014 33.5854 8 33.3091 8 33C8 32.4478 8.44775 32 9 32C9.30371 32 9.57568 32.1353 9.75879 32.3491C9.90918 32.5239 10 32.7515 10 33ZM25 34C25.5522 34 26 33.5522 26 33C26 32.7266 25.8901 32.4785 25.7119 32.2979C25.6929 32.2788 25.6733 32.2607 25.6533 32.2432C25.6206 32.2148 25.5859 32.1885 25.5498 32.1646C25.5088 32.1377 25.4658 32.1138 25.4209 32.0928C25.293 32.0332 25.1504 32 25 32C24.4478 32 24 32.4478 24 33C24 33.5522 24.4478 34 25 34ZM34 1C34 1.24707 33.9106 1.47314 33.7622 1.64746C33.5786 1.86328 33.3052 2 33 2C32.4478 2 32 1.55225 32 1C32 0.447754 32.4478 0 33 0C33.5522 0 34 0.447754 34 1ZM1.8999 17.4365L1.92871 17.3716C1.97461 17.2563 2 17.1313 2 17C2 16.7563 1.9126 16.5332 1.76807 16.3594C1.68896 16.2646 1.59229 16.1851 1.4834 16.125C1.34033 16.0454 1.17529 16 1 16C0.447754 16 0 16.4478 0 17C0 17.5522 0.447754 18 1 18C1.16211 18 1.31543 17.9614 1.45068 17.8931C1.60742 17.814 1.74072 17.6943 1.83691 17.5479L1.86621 17.5005C1.87842 17.4795 1.88965 17.458 1.8999 17.4365ZM18 17C18 17.5522 17.5522 18 17 18C16.4478 18 16 17.5522 16 17C16 16.4478 16.4478 16 17 16C17.2876 16 17.5469 16.1216 17.7295 16.3159C17.8145 16.4062 17.8828 16.5122 17.9297 16.6294C17.9453 16.6689 17.9585 16.71 17.9692 16.7524C17.9766 16.7822 17.9829 16.813 17.9878 16.8438C17.9956 16.8945 18 16.9468 18 17ZM33 18C33.5522 18 34 17.5522 34 17C34 16.7173 33.8823 16.4614 33.6934 16.2798C33.5137 16.1064 33.2695 16 33 16C32.4478 16 32 16.4478 32 17C32 17.5522 32.4478 18 33 18ZM10 9C10 9.22266 9.92725 9.42822 9.8042 9.59424C9.62207 9.84033 9.32959 10 9 10C8.44775 10 8 9.55225 8 9C8 8.44775 8.44775 8 9 8C9.55225 8 10 8.44775 10 9ZM25.8457 9.53418C25.8926 9.45996 25.9302 9.37939 25.9561 9.29395L25.9678 9.25293L25.9771 9.21582L25.9873 9.16016C25.9956 9.1084 26 9.05469 26 9C26 8.44775 25.5522 8 25 8C24.4478 8 24 8.44775 24 9C24 9.12695 24.0234 9.24854 24.0664 9.36035C24.2114 9.73438 24.5747 10 25 10C25.3179 10 25.6011 9.85156 25.7842 9.62061C25.8062 9.59277 25.8267 9.56396 25.8457 9.53418ZM2 9C2 9.21338 1.93311 9.41162 1.81885 9.57373C1.63818 9.83154 1.33887 10 1 10C0.447754 10 0 9.55225 0 9C0 8.44775 0.447754 8 1 8C1.55225 8 2 8.44775 2 9ZM17.793 9.60938C17.9229 9.44092 18 9.22949 18 9C18 8.44775 17.5522 8 17 8C16.4478 8 16 8.44775 16 9C16 9.55225 16.4478 10 17 10C17.1455 10 17.2837 9.96924 17.4082 9.91357C17.5029 9.87109 17.5894 9.81494 17.6655 9.74658L17.6968 9.71729L17.7158 9.69824C17.7432 9.67041 17.769 9.64062 17.793 9.60938ZM34 9C34 9.23877 33.9165 9.45801 33.7769 9.62988C33.5933 9.85547 33.3135 10 33 10C32.4478 10 32 9.55225 32 9C32 8.44775 32.4478 8 33 8C33.5522 8 34 8.44775 34 9ZM9 26C9.55225 26 10 25.5522 10 25C10 24.748 9.90674 24.5181 9.75293 24.3423C9.56982 24.1323 9.30029 24 9 24C8.44775 24 8 24.4478 8 25C8 25.5522 8.44775 26 9 26ZM26 25C26 25.5522 25.5522 26 25 26C24.4478 26 24 25.5522 24 25C24 24.4478 24.4478 24 25 24C25.0815 24 25.1606 24.0098 25.2363 24.0278C25.3452 24.0542 25.4478 24.0986 25.5396 24.1577C25.6021 24.1978 25.6597 24.2446 25.7114 24.2974C25.8896 24.478 26 24.7261 26 25ZM1 26C1.55225 26 2 25.5522 2 25C2 24.7603 1.91553 24.5405 1.7749 24.3682C1.68457 24.2573 1.5708 24.1665 1.44141 24.1025C1.30811 24.0371 1.1582 24 1 24C0.447754 24 0 24.4478 0 25C0 25.5522 0.447754 26 1 26ZM18 25C18 25.5522 17.5522 26 17 26C16.4478 26 16 25.5522 16 25C16 24.4478 16.4478 24 17 24C17.2891 24 17.5493 24.1226 17.7319 24.3184C17.7637 24.3525 17.7935 24.3892 17.8203 24.4277C17.8486 24.4683 17.874 24.5107 17.896 24.5552C17.9629 24.689 18 24.8403 18 25ZM33 26C33.5522 26 34 25.5522 34 25C34 24.8633 33.9727 24.7334 33.9229 24.6147C33.8696 24.4868 33.7905 24.3726 33.6919 24.2783C33.5122 24.106 33.2686 24 33 24C32.4478 24 32 24.4478 32 25C32 25.5522 32.4478 26 33 26ZM2 33C2 33.5522 1.55225 34 1 34C0.752441 34 0.525879 33.9102 0.351562 33.7612C0.243652 33.6689 0.155273 33.5547 0.0942383 33.4248C0.0336914 33.2959 0 33.1519 0 33C0 32.4478 0.447754 32 1 32C1.55225 32 2 32.4478 2 33ZM17 34C17.5522 34 18 33.5522 18 33C18 32.7383 17.8994 32.5 17.7349 32.3218C17.6562 32.2368 17.563 32.1655 17.459 32.1118C17.3218 32.0405 17.1655 32 17 32C16.4478 32 16 32.4478 16 33C16 33.5522 16.4478 34 17 34ZM34 33C34 33.5522 33.5522 34 33 34C32.4478 34 32 33.5522 32 33C32 32.4478 32.4478 32 33 32C33.2676 32 33.5107 32.105 33.6899 32.2764C33.7183 32.3037 33.7451 32.3325 33.77 32.3628C33.9136 32.5356 34 32.7578 34 33ZM9 42C9.55225 42 10 41.5522 10 41C10 40.4478 9.55225 40 9 40C8.44775 40 8 40.4478 8 41C8 41.1333 8.02588 41.2607 8.07324 41.377C8.1084 41.4629 8.15527 41.543 8.21143 41.6147C8.24756 41.6611 8.2876 41.7041 8.33105 41.7432C8.42188 41.8247 8.52783 41.8901 8.64404 41.9346C8.75439 41.9771 8.87451 42 9 42ZM26 41C26 41.5522 25.5522 42 25 42C24.4478 42 24 41.5522 24 41C24 40.4478 24.4478 40 25 40C25.1055 40 25.2065 40.0161 25.3018 40.0464L25.3433 40.0605L25.3906 40.0791C25.5122 40.1309 25.6211 40.2056 25.7124 40.2983C25.8901 40.479 26 40.7266 26 41ZM1 42C1.55225 42 2 41.5522 2 41C2 40.4478 1.55225 40 1 40C0.447754 40 0 40.4478 0 41C0 41.293 0.125977 41.5562 0.32666 41.7393C0.504395 41.9014 0.740723 42 1 42ZM18 41C18 41.5522 17.5522 42 17 42C16.8579 42 16.7227 41.9707 16.6006 41.9175C16.5747 41.9062 16.5498 41.894 16.5254 41.8809L16.4805 41.855C16.4297 41.8237 16.3818 41.7881 16.3374 41.749C16.2163 41.6416 16.1216 41.5054 16.0635 41.3511C16.0225 41.2417 16 41.1235 16 41C16 40.4478 16.4478 40 17 40C17.1694 40 17.3286 40.042 17.4683 40.1162C17.5703 40.1704 17.6616 40.2417 17.7388 40.3262C17.9009 40.5039 18 40.7402 18 41ZM33 42C33.5522 42 34 41.5522 34 41C34 40.9321 33.9937 40.8662 33.9805 40.8022C33.9702 40.7515 33.9561 40.7017 33.9385 40.6538C33.8848 40.5083 33.7983 40.3789 33.688 40.2744C33.5088 40.1045 33.2666 40 33 40C32.4478 40 32 40.4478 32 41C32 41.5522 32.4478 42 33 42ZM42 1C42 1.24951 41.9082 1.47803 41.7568 1.65332C41.5737 1.86572 41.3027 2 41 2C40.4478 2 40 1.55225 40 1C40 0.447754 40.4478 0 41 0C41.5522 0 42 0.447754 42 1ZM49 2C49.5522 2 50 1.55225 50 1C50 0.447754 49.5522 0 49 0C48.4478 0 48 0.447754 48 1C48 1.55225 48.4478 2 49 2ZM58 1C58 1.55225 57.5522 2 57 2C56.4478 2 56 1.55225 56 1C56 0.447754 56.4478 0 57 0C57.5522 0 58 0.447754 58 1ZM65.9282 1.37256C65.9746 1.25732 66 1.13184 66 1C66 0.447754 65.5522 0 65 0C64.4478 0 64 0.447754 64 1C64 1.55225 64.4478 2 65 2C65.3452 2 65.6499 1.82471 65.8296 1.55859C65.8687 1.50049 65.9019 1.43848 65.9282 1.37256ZM49.5786 17.8154C49.4155 17.9316 49.2158 18 49 18C48.4478 18 48 17.5522 48 17C48 16.4478 48.4478 16 49 16C49.5522 16 50 16.4478 50 17C50 17.3364 49.8335 17.6343 49.5786 17.8154ZM65.8726 17.4888C65.9536 17.3442 66 17.1777 66 17C66 16.4478 65.5522 16 65 16C64.4478 16 64 16.4478 64 17C64 17.5522 64.4478 18 65 18C65.0771 18 65.1523 17.9912 65.2246 17.9746C65.2886 17.96 65.3501 17.939 65.4082 17.9131C65.605 17.8252 65.7676 17.6753 65.8726 17.4888ZM49.6216 33.7832C49.4512 33.9189 49.2349 34 49 34C48.4478 34 48 33.5522 48 33C48 32.4478 48.4478 32 49 32C49.5522 32 50 32.4478 50 33C50 33.3174 49.8521 33.6001 49.6216 33.7832ZM65 34C65.2124 34 65.4092 33.9336 65.5713 33.8208C65.7124 33.7227 65.8267 33.5889 65.9019 33.4331C65.9648 33.3022 66 33.1553 66 33C66 32.4478 65.5522 32 65 32C64.4478 32 64 32.4478 64 33C64 33.5522 64.4478 34 65 34ZM74 1C74 1.2207 73.9287 1.42432 73.8076 1.58984C73.7036 1.73145 73.5635 1.84473 73.4009 1.91602C73.2783 1.97021 73.1426 2 73 2C72.4478 2 72 1.55225 72 1C72 0.447754 72.4478 0 73 0C73.5522 0 74 0.447754 74 1ZM41 18C41.5522 18 42 17.5522 42 17C42 16.7085 41.8755 16.4463 41.6768 16.2637C41.4985 16.1001 41.2607 16 41 16C40.4478 16 40 16.4478 40 17C40 17.5522 40.4478 18 41 18ZM57.2534 17.9678C57.1724 17.9888 57.0874 18 57 18C56.4478 18 56 17.5522 56 17C56 16.4478 56.4478 16 57 16C57.5522 16 58 16.4478 58 17C58 17.248 57.9102 17.4746 57.7607 17.6494C57.6978 17.7231 57.624 17.7876 57.542 17.8403L57.5093 17.8613L57.4707 17.8823L57.4185 17.9082C57.3657 17.9326 57.3105 17.9526 57.2534 17.9678ZM73.957 17.291C73.9849 17.1987 74 17.1011 74 17C74 16.7627 73.9175 16.5449 73.7798 16.3735C73.5962 16.1455 73.3149 16 73 16C72.4478 16 72 16.4478 72 17C72 17.5522 72.4478 18 73 18C73.3574 18 73.6714 17.8125 73.8481 17.5303C73.8945 17.4565 73.9312 17.376 73.957 17.291ZM50 9C50 9.55225 49.5522 10 49 10C48.4478 10 48 9.55225 48 9C48 8.44775 48.4478 8 49 8C49.5522 8 50 8.44775 50 9ZM65.9678 9.25342C65.9888 9.17236 66 9.0874 66 9C66 8.44775 65.5522 8 65 8C64.4478 8 64 8.44775 64 9C64 9.55225 64.4478 10 65 10C65.231 10 65.4434 9.92188 65.6123 9.79053C65.6348 9.77295 65.6567 9.75439 65.6777 9.73535C65.6978 9.71729 65.7168 9.69824 65.7349 9.67871C65.7793 9.63037 65.8188 9.57764 65.8535 9.52148C65.8726 9.49023 65.8901 9.45752 65.9058 9.42383C65.9312 9.36963 65.9521 9.3125 65.9678 9.25342ZM42 9C42 9.24219 41.9141 9.46436 41.771 9.63721C41.5874 9.85889 41.3101 10 41 10C40.4478 10 40 9.55225 40 9C40 8.44775 40.4478 8 41 8C41.5522 8 42 8.44775 42 9ZM57 10C57.5522 10 58 9.55225 58 9C58 8.44775 57.5522 8 57 8C56.4478 8 56 8.44775 56 9C56 9.55225 56.4478 10 57 10ZM73.9199 9.39258C73.895 9.45117 73.8647 9.50684 73.8296 9.55908C73.7295 9.70703 73.5913 9.82666 73.4287 9.90381C73.3457 9.94287 73.2568 9.97119 73.1636 9.98682C73.1104 9.99561 73.0557 10 73 10C72.4478 10 72 9.55225 72 9C72 8.44775 72.4478 8 73 8C73.5522 8 74 8.44775 74 9C74 9.13916 73.9712 9.27197 73.9199 9.39258ZM49 26C49.2271 26 49.4365 25.9243 49.6045 25.7969C49.8447 25.6143 50 25.3252 50 25C50 24.4478 49.5522 24 49 24C48.4478 24 48 24.4478 48 25C48 25.5522 48.4478 26 49 26ZM66 25C66 25.166 65.9595 25.3223 65.8882 25.46C65.7217 25.7808 65.3862 26 65 26C64.4478 26 64 25.5522 64 25C64 24.4478 64.4478 24 65 24C65.5522 24 66 24.4478 66 25ZM41 26C41.5522 26 42 25.5522 42 25C42 24.8477 41.9658 24.7036 41.9048 24.5742C41.8486 24.4551 41.7695 24.3486 41.6733 24.2607C41.6172 24.21 41.5552 24.165 41.4888 24.1274C41.4478 24.1045 41.4048 24.084 41.3604 24.0669C41.2485 24.0234 41.127 24 41 24C40.4478 24 40 24.4478 40 25C40 25.5522 40.4478 26 41 26ZM58 25C58 25.1387 57.9717 25.2705 57.9209 25.3906C57.7686 25.7485 57.4136 26 57 26C56.4478 26 56 25.5522 56 25C56 24.4478 56.4478 24 57 24C57.5522 24 58 24.4478 58 25ZM73 26C73.5522 26 74 25.5522 74 25C74 24.4478 73.5522 24 73 24C72.4478 24 72 24.4478 72 25C72 25.3149 72.1455 25.5962 72.3735 25.7798C72.4717 25.8589 72.5854 25.9194 72.709 25.957C72.7471 25.9688 72.7861 25.978 72.8267 25.9854C72.8828 25.9951 72.9409 26 73 26ZM42 33C42 33.5522 41.5522 34 41 34C40.4478 34 40 33.5522 40 33C40 32.4478 40.4478 32 41 32C41.2573 32 41.4922 32.0977 41.6694 32.2573C41.8726 32.4404 42 32.7051 42 33ZM57.9321 33.3628C57.9761 33.2505 58 33.1279 58 33C58 32.4478 57.5522 32 57 32C56.4478 32 56 32.4478 56 33C56 33.5522 56.4478 34 57 34C57.2124 34 57.4092 33.9336 57.5708 33.8208C57.7324 33.7085 57.8594 33.5493 57.9321 33.3628ZM74 33C74 33.5522 73.5522 34 73 34C72.751 34 72.5229 33.9087 72.3477 33.7578C72.1348 33.5747 72 33.3032 72 33C72 32.4478 72.4478 32 73 32C73.5522 32 74 32.4478 74 33ZM49 42C49.2407 42 49.4619 41.915 49.6343 41.7734C49.8574 41.5898 50 41.3115 50 41C50 40.4478 49.5522 40 49 40C48.4478 40 48 40.4478 48 41C48 41.5522 48.4478 42 49 42ZM66 41C66 41.5522 65.5522 42 65 42C64.4478 42 64 41.5522 64 41C64 40.4478 64.4478 40 65 40C65.5522 40 66 40.4478 66 41ZM41 42C41.5522 42 42 41.5522 42 41C42 40.7031 41.8706 40.436 41.665 40.2529C41.603 40.1978 41.5337 40.1499 41.459 40.1113C41.3218 40.04 41.1655 40 41 40C40.4478 40 40 40.4478 40 41C40 41.5522 40.4478 42 41 42ZM58 41C58 41.1191 57.979 41.2334 57.9409 41.3394C57.8022 41.7246 57.4331 42 57 42C56.4478 42 56 41.5522 56 41C56 40.4478 56.4478 40 57 40C57.5522 40 58 40.4478 58 41ZM73 42C73.5522 42 74 41.5522 74 41C74 40.4478 73.5522 40 73 40C72.4478 40 72 40.4478 72 41C72 41.2915 72.125 41.5542 72.3242 41.7373C72.502 41.9004 72.7393 42 73 42ZM82 1C82 1.22949 81.9229 1.44092 81.7925 1.60986C81.6099 1.84717 81.3228 2 81 2C80.4478 2 80 1.55225 80 1C80 0.447754 80.4478 0 81 0C81.5522 0 82 0.447754 82 1ZM89.7808 1.62451C89.918 1.45361 90 1.23633 90 1C90 0.447754 89.5522 0 89 0C88.4478 0 88 0.447754 88 1C88 1.55225 88.4478 2 89 2C89.3159 2 89.5977 1.85352 89.7808 1.62451ZM98 1C98 1.11035 97.9819 1.21631 97.9492 1.31592C97.9102 1.43359 97.8496 1.5415 97.7725 1.63525C97.5889 1.85791 97.311 2 97 2C96.7822 2 96.5806 1.93066 96.4165 1.8125C96.269 1.70654 96.1519 1.56152 96.0796 1.39258C96.0283 1.27197 96 1.13916 96 1C96 0.447754 96.4478 0 97 0C97.5522 0 98 0.447754 98 1ZM105.988 1.15527C105.996 1.10449 106 1.05273 106 1C106 0.447754 105.552 0 105 0C104.448 0 104 0.447754 104 1C104 1.55225 104.448 2 105 2C105.129 2 105.252 1.97559 105.365 1.93115C105.522 1.86963 105.659 1.77002 105.765 1.64355C105.836 1.55908 105.894 1.46289 105.934 1.3584C105.958 1.29346 105.977 1.22559 105.988 1.15527ZM90 17C90 17.5522 89.5522 18 89 18C88.4478 18 88 17.5522 88 17C88 16.4478 88.4478 16 89 16C89.2935 16 89.5571 16.1265 89.7397 16.3276C89.7983 16.3916 89.8486 16.4634 89.8887 16.5415C89.9106 16.584 89.9297 16.6279 89.9458 16.6738C89.981 16.7759 90 16.8857 90 17ZM105 18C105.552 18 106 17.5522 106 17C106 16.8442 105.964 16.6973 105.901 16.5659C105.867 16.4956 105.825 16.4297 105.777 16.3696C105.754 16.3418 105.729 16.3149 105.704 16.2896C105.603 16.189 105.48 16.1104 105.343 16.0605L105.283 16.04C105.254 16.0317 105.225 16.0244 105.195 16.0186C105.132 16.0063 105.067 16 105 16C104.448 16 104 16.4478 104 17C104 17.5522 104.448 18 105 18ZM90 33C90 33.5522 89.5522 34 89 34C88.4478 34 88 33.5522 88 33C88 32.4478 88.4478 32 89 32C89.2979 32 89.5654 32.1304 89.7485 32.3369C89.8438 32.4443 89.916 32.5723 89.958 32.7129L89.9688 32.7524L89.9814 32.8096C89.9878 32.8423 89.9927 32.876 89.9956 32.9102C89.9985 32.9399 90 32.9697 90 33ZM105 34C105.552 34 106 33.5522 106 33C106 32.7217 105.886 32.4697 105.703 32.2886C105.522 32.1104 105.274 32 105 32C104.448 32 104 32.4478 104 33C104 33.5522 104.448 34 105 34ZM114 1C114 1.24805 113.91 1.4751 113.76 1.6499C113.577 1.86426 113.304 2 113 2C112.448 2 112 1.55225 112 1C112 0.447754 112.448 0 113 0C113.552 0 114 0.447754 114 1ZM81 18C81.5522 18 82 17.5522 82 17C82 16.9478 81.9961 16.8965 81.9888 16.8462C81.981 16.7959 81.9692 16.7466 81.9541 16.6992C81.9404 16.6562 81.9243 16.6143 81.9053 16.5737L81.8823 16.5288C81.8477 16.4644 81.8066 16.4043 81.7598 16.3496C81.5762 16.1357 81.3037 16 81 16C80.4478 16 80 16.4478 80 17C80 17.5522 80.4478 18 81 18ZM98 17C98 17.5522 97.5522 18 97 18C96.4478 18 96 17.5522 96 17C96 16.4478 96.4478 16 97 16C97.2837 16 97.5396 16.1182 97.7217 16.3076C97.834 16.4248 97.918 16.5693 97.9629 16.7295C97.9868 16.8154 98 16.9062 98 17ZM113 18C113.552 18 114 17.5522 114 17C114 16.7134 113.879 16.4551 113.687 16.2725C113.507 16.1035 113.266 16 113 16C112.448 16 112 16.4478 112 17C112 17.5522 112.448 18 113 18ZM90 9C90 9.11572 89.98 9.22705 89.9438 9.33057C89.9258 9.38184 89.9043 9.43115 89.8789 9.47852C89.8555 9.52148 89.8286 9.5625 89.7993 9.60107C89.6963 9.73779 89.5591 9.84717 89.4004 9.9165C89.3784 9.92627 89.356 9.93506 89.3335 9.94287C89.2969 9.95605 89.2593 9.9668 89.2212 9.9751C89.1499 9.99121 89.0762 10 89 10C88.4478 10 88 9.55225 88 9C88 8.44775 88.4478 8 89 8C89.5522 8 90 8.44775 90 9ZM105.781 9.625C105.918 9.45361 106 9.23633 106 9C106 8.44775 105.552 8 105 8C104.448 8 104 8.44775 104 9C104 9.55225 104.448 10 105 10C105.316 10 105.598 9.85352 105.781 9.625ZM82 9C82 9.21777 81.9302 9.41943 81.812 9.5835C81.7783 9.63037 81.7402 9.67432 81.6992 9.71484C81.6313 9.78076 81.5547 9.8374 81.4702 9.88232C81.3301 9.95752 81.1699 10 81 10C80.4478 10 80 9.55225 80 9C80 8.44775 80.4478 8 81 8C81.5522 8 82 8.44775 82 9ZM97.7886 9.61426C97.9209 9.44482 98 9.23145 98 9C98 8.44775 97.5522 8 97 8C96.4478 8 96 8.44775 96 9C96 9.55225 96.4478 10 97 10C97.3208 10 97.606 9.84912 97.7886 9.61426ZM114 9C114 9.24023 113.915 9.46094 113.774 9.6333C113.591 9.85693 113.312 10 113 10C112.448 10 112 9.55225 112 9C112 8.44775 112.448 8 113 8C113.552 8 114 8.44775 114 9ZM89 26C89.5522 26 90 25.5522 90 25C90 24.7432 89.9028 24.5088 89.7437 24.3315C89.5605 24.1279 89.2954 24 89 24C88.4478 24 88 24.4478 88 25C88 25.5522 88.4478 26 89 26ZM106 25C106 25.5522 105.552 26 105 26C104.448 26 104 25.5522 104 25C104 24.4478 104.448 24 105 24C105.274 24 105.522 24.1104 105.703 24.2891C105.886 24.4702 106 24.7217 106 25ZM81 26C81.5522 26 82 25.5522 82 25C82 24.894 81.9834 24.792 81.9526 24.6963C81.9351 24.6411 81.9131 24.5884 81.8867 24.5376C81.8525 24.4727 81.812 24.4121 81.7651 24.3564C81.582 24.1387 81.3071 24 81 24C80.4478 24 80 24.4478 80 25C80 25.5522 80.4478 26 81 26ZM98 25C98 25.5522 97.5522 26 97 26C96.4478 26 96 25.5522 96 25C96 24.4478 96.4478 24 97 24C97.2842 24 97.541 24.1187 97.7231 24.3091C97.8945 24.4888 98 24.7319 98 25ZM113 26C113.552 26 114 25.5522 114 25C114 24.7124 113.878 24.4531 113.684 24.2705C113.505 24.1025 113.265 24 113 24C112.448 24 112 24.4478 112 25C112 25.5522 112.448 26 113 26ZM82 33C82 33.5522 81.5522 34 81 34C80.9312 34 80.8638 33.9932 80.7988 33.9795C80.7461 33.9688 80.6948 33.9541 80.646 33.9355C80.6074 33.9209 80.5698 33.9038 80.5337 33.8848L80.4644 33.8442C80.4263 33.8198 80.3896 33.793 80.3555 33.7642C80.1382 33.5811 80 33.3066 80 33C80 32.4478 80.4478 32 81 32C81.3115 32 81.5898 32.1426 81.7734 32.3657C81.915 32.5381 82 32.7593 82 33ZM97 34C97.5522 34 98 33.5522 98 33C98 32.8423 97.9639 32.6934 97.8989 32.5605C97.8535 32.4688 97.7949 32.3848 97.7251 32.3115C97.6089 32.189 97.4614 32.0957 97.2959 32.0444C97.2026 32.0156 97.103 32 97 32C96.4478 32 96 32.4478 96 33C96 33.5522 96.4478 34 97 34ZM114 33C114 33.5522 113.552 34 113 34C112.448 34 112 33.5522 112 33C112 32.4478 112.448 32 113 32C113.263 32 113.502 32.1016 113.681 32.2681C113.877 32.4507 114 32.7109 114 33ZM89 42C89.5522 42 90 41.5522 90 41C90 40.749 89.9072 40.5195 89.7544 40.3438C89.5713 40.1333 89.3013 40 89 40C88.4478 40 88 40.4478 88 41C88 41.2964 88.1289 41.5625 88.3335 41.7456C88.5107 41.9038 88.7441 42 89 42ZM106 41C106 41.5522 105.552 42 105 42C104.448 42 104 41.5522 104 41C104 40.4478 104.448 40 105 40C105.273 40 105.521 40.1099 105.702 40.2881C105.886 40.4692 106 40.7212 106 41ZM81 42C81.5522 42 82 41.5522 82 41C82 40.4478 81.5522 40 81 40C80.4478 40 80 40.4478 80 41C80 41.2939 80.127 41.5581 80.3286 41.7407C80.5059 41.9019 80.7417 42 81 42ZM98 41C98 41.5522 97.5522 42 97 42C96.4478 42 96 41.5522 96 41C96 40.4478 96.4478 40 97 40C97.1504 40 97.2925 40.0332 97.4204 40.0928C97.5366 40.1465 97.6406 40.2222 97.7275 40.314C97.7534 40.3413 97.7778 40.3706 97.8003 40.4009L97.8325 40.4468C97.8521 40.4761 97.8701 40.5063 97.8867 40.5376C97.9053 40.5732 97.9219 40.6104 97.936 40.6484L97.9536 40.6963L97.9673 40.7451C97.9751 40.7754 97.9814 40.8062 97.9868 40.8379L97.9937 40.8838C97.998 40.9219 98 40.9604 98 41ZM113 42C113.552 42 114 41.5522 114 41C114 40.7095 113.876 40.4478 113.678 40.2651C113.5 40.1006 113.262 40 113 40C112.448 40 112 40.4478 112 41C112 41.5522 112.448 42 113 42ZM122 1C122 1.25049 121.908 1.47949 121.755 1.65527C121.572 1.86621 121.302 2 121 2C120.448 2 120 1.55225 120 1C120 0.447754 120.448 0 121 0C121.552 0 122 0.447754 122 1ZM129 2C129.552 2 130 1.55225 130 1C130 0.447754 129.552 0 129 0C128.448 0 128 0.447754 128 1C128 1.55225 128.448 2 129 2ZM138 1C138 1.55225 137.552 2 137 2C136.448 2 136 1.55225 136 1C136 0.447754 136.448 0 137 0C137.552 0 138 0.447754 138 1ZM145.819 1.57373C145.867 1.50586 145.906 1.43164 145.936 1.35303C145.958 1.29492 145.974 1.23438 145.985 1.17236C145.995 1.11621 146 1.05859 146 1C146 0.447754 145.552 0 145 0C144.448 0 144 0.447754 144 1C144 1.55225 144.448 2 145 2C145.339 2 145.638 1.83154 145.819 1.57373ZM129.32 17.9478C129.219 17.9814 129.112 18 129 18C128.448 18 128 17.5522 128 17C128 16.4478 128.448 16 129 16C129.552 16 130 16.4478 130 17C130 17.3438 129.827 17.647 129.562 17.8267C129.488 17.8774 129.407 17.9185 129.32 17.9478ZM145.948 17.3198C145.981 17.2192 146 17.1118 146 17C146 16.77 145.922 16.5581 145.792 16.3892C145.609 16.1523 145.322 16 145 16C144.448 16 144 16.4478 144 17C144 17.5522 144.448 18 145 18C145.367 18 145.687 17.8032 145.861 17.5088C145.896 17.4497 145.925 17.3862 145.948 17.3198ZM129.611 33.792C129.442 33.9224 129.23 34 129 34C128.448 34 128 33.5522 128 33C128 32.4478 128.448 32 129 32C129.552 32 130 32.4478 130 33C130 33.3223 129.848 33.6089 129.611 33.792ZM145 34C145.552 34 146 33.5522 146 33C146 32.4478 145.552 32 145 32C144.448 32 144 32.4478 144 33C144 33.3013 144.133 33.5713 144.344 33.7549C144.52 33.9077 144.749 34 145 34ZM153.978 1.20947C153.972 1.23975 153.964 1.26953 153.955 1.29883C153.92 1.40869 153.868 1.50977 153.8 1.59961C153.618 1.84277 153.327 2 153 2C152.448 2 152 1.55225 152 1C152 0.447754 152.448 0 153 0C153.552 0 154 0.447754 154 1L153.999 1.05225L153.994 1.11328C153.99 1.146 153.985 1.17773 153.978 1.20947ZM121 18C121.552 18 122 17.5522 122 17C122 16.7051 121.873 16.4404 121.669 16.2573C121.574 16.1709 121.461 16.103 121.337 16.0586C121.232 16.0205 121.118 16 121 16C120.448 16 120 16.4478 120 17C120 17.5522 120.448 18 121 18ZM138 17C138 17.1641 137.96 17.3188 137.891 17.4556C137.806 17.6216 137.675 17.7607 137.516 17.8569C137.49 17.873 137.462 17.8877 137.435 17.9014L137.385 17.9233C137.335 17.9438 137.284 17.9604 137.23 17.9731C137.156 17.9907 137.079 18 137 18C136.448 18 136 17.5522 136 17C136 16.4478 136.448 16 137 16C137.552 16 138 16.4478 138 17ZM153.839 17.5439C153.941 17.3872 154 17.2007 154 17C154 16.7578 153.914 16.5361 153.771 16.3628C153.676 16.2476 153.555 16.1543 153.417 16.0913C153.291 16.0327 153.149 16 153 16C152.448 16 152 16.4478 152 17C152 17.5522 152.448 18 153 18C153.352 18 153.661 17.8184 153.839 17.5439ZM130 9C130 9.55225 129.552 10 129 10C128.448 10 128 9.55225 128 9C128 8.44775 128.448 8 129 8C129.552 8 130 8.44775 130 9ZM145.966 9.25781C145.988 9.17529 146 9.08887 146 9C146 8.44775 145.552 8 145 8C144.448 8 144 8.44775 144 9C144 9.55225 144.448 10 145 10C145.354 10 145.664 9.81641 145.842 9.53955C145.897 9.45361 145.939 9.35889 145.966 9.25781ZM122 9C122 9.24316 121.913 9.46631 121.769 9.63965C121.585 9.85986 121.309 10 121 10C120.448 10 120 9.55225 120 9C120 8.44775 120.448 8 121 8C121.552 8 122 8.44775 122 9ZM137.872 9.49072C137.953 9.3457 138 9.17822 138 9C138 8.44775 137.552 8 137 8C136.448 8 136 8.44775 136 9C136 9.55225 136.448 10 137 10C137.374 10 137.7 9.79492 137.872 9.49072ZM154 9C154 9.12939 153.975 9.25342 153.93 9.3667C153.902 9.43896 153.865 9.50732 153.822 9.57031C153.728 9.70557 153.601 9.81641 153.453 9.8916C153.317 9.96094 153.163 10 153 10C152.448 10 152 9.55225 152 9C152 8.44775 152.448 8 153 8C153.552 8 154 8.44775 154 9ZM129 26C129.221 26 129.425 25.9282 129.591 25.8066C129.714 25.7158 129.816 25.5977 129.888 25.4609C129.906 25.4258 129.922 25.3892 129.937 25.3516C129.949 25.3174 129.96 25.2827 129.969 25.2471C129.983 25.1919 129.993 25.1343 129.997 25.0757C129.999 25.0508 130 25.0254 130 25C130 24.4478 129.552 24 129 24C128.448 24 128 24.4478 128 25C128 25.5522 128.448 26 129 26ZM145.171 25.9854L145.113 25.9937L145.058 25.998L145 26C144.76 26 144.541 25.9155 144.368 25.7749C144.144 25.5918 144 25.3125 144 25C144 24.4478 144.448 24 145 24C145.552 24 146 24.4478 146 25C146 25.1489 145.967 25.2905 145.909 25.4175C145.828 25.5938 145.697 25.7422 145.535 25.8452C145.442 25.9038 145.339 25.9478 145.229 25.9736L145.171 25.9854ZM121 26C121.552 26 122 25.5522 122 25C122 24.8486 121.966 24.7051 121.906 24.5762C121.848 24.4526 121.766 24.3433 121.666 24.2539C121.614 24.207 121.556 24.1655 121.495 24.1309C121.349 24.0479 121.18 24 121 24C120.448 24 120 24.4478 120 25C120 25.5522 120.448 26 121 26ZM138 25C138 25.1519 137.966 25.2959 137.906 25.4248C137.746 25.7646 137.4 26 137 26C136.448 26 136 25.5522 136 25C136 24.4478 136.448 24 137 24C137.552 24 138 24.4478 138 25ZM153 26C153.552 26 154 25.5522 154 25C154 24.7622 153.917 24.5439 153.778 24.3721C153.595 24.145 153.314 24 153 24C152.448 24 152 24.4478 152 25C152 25.3174 152.148 25.6001 152.378 25.7832C152.549 25.9189 152.765 26 153 26ZM122 33C122 33.5522 121.552 34 121 34C120.448 34 120 33.5522 120 33C120 32.4478 120.448 32 121 32C121.253 32 121.485 32.0942 121.661 32.2495C121.869 32.4331 122 32.7012 122 33ZM137.977 33.2134C137.992 33.1445 138 33.0732 138 33C138 32.4478 137.552 32 137 32C136.448 32 136 32.4478 136 33C136 33.5522 136.448 34 137 34C137.411 34 137.764 33.752 137.918 33.3975C137.935 33.3589 137.949 33.3193 137.961 33.2783L137.977 33.2134ZM154 33C154 33.5522 153.552 34 153 34C152.752 34 152.525 33.9097 152.351 33.7603C152.201 33.6328 152.09 33.4619 152.037 33.2676C152.013 33.1826 152 33.0928 152 33C152 32.4478 152.448 32 153 32C153.552 32 154 32.4478 154 33ZM129 42C129.236 42 129.453 41.918 129.624 41.7812C129.734 41.6934 129.825 41.5825 129.89 41.4565C129.96 41.3198 130 41.1646 130 41C130 40.4478 129.552 40 129 40C128.448 40 128 40.4478 128 41C128 41.5522 128.448 42 129 42ZM146 41C146 41.5522 145.552 42 145 42C144.739 42 144.5 41.8999 144.322 41.7354C144.124 41.5527 144 41.291 144 41C144 40.4478 144.448 40 145 40C145.552 40 146 40.4478 146 41ZM121 42C121.552 42 122 41.5522 122 41C122 40.6982 121.866 40.4277 121.655 40.2446C121.567 40.1685 121.465 40.1069 121.354 40.0649C121.245 40.0229 121.125 40 121 40C120.448 40 120 40.4478 120 41C120 41.5522 120.448 42 121 42ZM137.602 41.7988C137.435 41.9253 137.226 42 137 42C136.448 42 136 41.5522 136 41C136 40.4478 136.448 40 137 40C137.552 40 138 40.4478 138 41C138 41.3262 137.844 41.6162 137.602 41.7988ZM153 42C153.552 42 154 41.5522 154 41C154 40.4478 153.552 40 153 40C152.448 40 152 40.4478 152 41C152 41.5522 152.448 42 153 42Z" fill="white"/>
</svg>
