<svg width="10" height="13" viewBox="0 0 10 13" fill="none" xmlns="http://www.w3.org/2000/svg">
<path fill-rule="evenodd" clip-rule="evenodd" d="M4.61967 0.830155C4.6195 0.371732 4.25661 -0.000106385 3.80856 2.28319e-08C1.95447 0.298875 0.0395896 0.789341 0 3.2096C0.216415 7.2412 1.96918 10.3495 5.27144 12.5572C7.33868 13.732 8.71617 12.3712 9.89114 10.7856C10.1153 10.3884 9.98215 9.88073 9.59444 9.65136L7.16125 7.60552C6.75163 7.36384 6.44776 7.44697 6.20426 7.66425C5.98761 7.85757 5.81875 8.15709 5.66573 8.42852C5.64829 8.45946 5.63105 8.49005 5.61396 8.52007L5.36687 8.22832C5.21949 8.0543 5.07896 7.87481 4.94551 7.69028C4.54364 7.13453 4.20608 6.53306 3.93949 5.89765C3.85583 5.69825 3.77916 5.49551 3.70968 5.2898L3.58644 4.92488C3.58644 4.92488 4.11996 4.88952 4.56044 4.69586C4.87 4.55976 5.13361 4.34548 5.13373 4.01033L4.61967 0.830155ZM4.09398 3.80228L3.64873 1.04774C2.85422 1.1883 2.21116 1.36056 1.74919 1.65921C1.32883 1.93096 1.01371 2.33149 0.991744 3.18184C1.19909 6.86542 2.77849 9.66623 5.79085 11.6918C6.53783 12.1071 7.04048 12.0346 7.47047 11.81C7.94792 11.5607 8.41867 11.0756 8.93167 10.4091L6.73817 8.56478C6.72932 8.57788 6.72 8.59201 6.7102 8.60725C6.65048 8.70015 6.59769 8.7937 6.53209 8.90996C6.5128 8.94415 6.4924 8.9803 6.47039 9.01898L5.76749 10.2541L4.86041 9.18313L4.61332 8.89138C3.80163 7.93299 3.17689 6.82519 2.772 5.62635L2.64876 5.26144L2.22439 4.00492L3.52896 3.91845L3.52913 3.91845L3.53248 3.91817C3.53782 3.91772 3.548 3.91682 3.5623 3.91533C3.59111 3.91234 3.63545 3.90712 3.68985 3.89876C3.80282 3.88139 3.93929 3.85347 4.06406 3.81246C4.07438 3.80907 4.08435 3.80568 4.09398 3.80228Z" fill="#ff8a00"/>
</svg>
