<svg width="9" height="13" viewBox="0 0 9 13" fill="none" xmlns="http://www.w3.org/2000/svg">
<path fill-rule="evenodd" clip-rule="evenodd" d="M8 4.5C8 4.88689 7.80463 5.5575 7.38904 6.45728C6.9912 7.31861 6.45208 8.26483 5.90012 9.155C5.40012 9.96138 4.89877 10.7071 4.5 11.2814C4.10123 10.7071 3.59988 9.96138 3.09988 9.155C2.54792 8.26483 2.0088 7.31861 1.61096 6.45728C1.19537 5.5575 1 4.88689 1 4.5C1 2.567 2.567 1 4.5 1C6.433 1 8 2.567 8 4.5ZM9 4.5C9 6.40851 6.34631 10.3984 5.1146 12.1475C4.74236 12.6761 4.5 13 4.5 13C4.5 13 4.25764 12.6761 3.8854 12.1475C2.65369 10.3984 0 6.40851 0 4.5C0 2.01472 2.01472 0 4.5 0C6.98528 0 9 2.01472 9 4.5ZM5.5 4.5C5.5 5.05228 5.05228 5.5 4.5 5.5C3.94772 5.5 3.5 5.05228 3.5 4.5C3.5 3.94772 3.94772 3.5 4.5 3.5C5.05228 3.5 5.5 3.94772 5.5 4.5ZM6.5 4.5C6.5 5.60457 5.60457 6.5 4.5 6.5C3.39543 6.5 2.5 5.60457 2.5 4.5C2.5 3.39543 3.39543 2.5 4.5 2.5C5.60457 2.5 6.5 3.39543 6.5 4.5Z" fill="#ff8a00"/>
</svg>
