<svg width="112" height="50" viewBox="0 0 112 50" fill="none" xmlns="http://www.w3.org/2000/svg">
<path d="M57.96 28.957V19.1893H54.4083V17.2005H63.9205V19.1893H60.3769V28.957H57.96Z" fill="#333333"/>
<path d="M65.4882 28.957V17.2005H74.3636V19.1893H67.905V21.7956H73.9145V23.7764H67.905V26.9762H74.5922V28.957H65.4882Z" fill="#333333"/>
<path d="M75.425 28.957L79.5157 22.8221L75.8088 17.2005H78.6339L81.0344 20.9776L83.3859 17.2005H86.1865L82.4633 22.9103L86.5539 28.957H83.639L80.9854 24.8911L78.3236 28.957H75.425Z" fill="#333333"/>
<path d="M87.8032 28.957V17.2005H90.22V21.8277H94.9557V17.2005H97.3726V28.957H94.9557V23.8165H90.22V28.957H87.8032Z" fill="#333333"/>
<path d="M99.3893 23.1509C99.3893 21.9533 99.5717 20.9482 99.9364 20.1356C100.209 19.5368 100.579 18.9995 101.047 18.5237C101.52 18.0479 102.038 17.695 102.598 17.4651C103.344 17.155 104.204 17 105.178 17C106.942 17 108.352 17.5373 109.408 18.6119C110.469 19.6865 111 21.1808 111 23.0948C111 24.9927 110.475 26.479 109.424 27.5536C108.374 28.6228 106.969 29.1575 105.211 29.1575C103.431 29.1575 102.016 28.6255 100.965 27.5616C99.9146 26.4923 99.3893 25.0221 99.3893 23.1509ZM101.88 23.0707C101.88 24.4019 102.193 25.4124 102.819 26.1021C103.445 26.7864 104.239 27.1286 105.203 27.1286C106.166 27.1286 106.956 26.7891 107.571 26.1101C108.191 25.4258 108.502 24.4019 108.502 23.0386C108.502 21.6914 108.199 20.6863 107.595 20.0233C106.996 19.3604 106.199 19.0289 105.203 19.0289C104.207 19.0289 103.404 19.3657 102.794 20.0394C102.185 20.7077 101.88 21.7181 101.88 23.0707Z" fill="#333333"/>
<path d="M56.2291 35.6773H64.5002V45.461H65.5535V50H63.5449V47.4338H56.0086V50H54V45.461H55.0125C55.5078 44.4559 55.8344 43.2904 55.9923 41.9645C56.1501 40.6333 56.2291 38.9519 56.2291 36.9203V35.6773ZM58.5316 37.6501C58.5316 41.2214 58.2023 43.825 57.5436 45.461H62.0915V37.6501H58.5316Z" fill="#333333"/>
<path d="M66.6966 41.6277C66.6966 40.4301 66.879 39.425 67.2437 38.6124C67.5158 38.0136 67.886 37.4763 68.3541 37.0005C68.8277 36.5247 69.3448 36.1718 69.9055 35.9419C70.6512 35.6318 71.5112 35.4768 72.4856 35.4768C74.2492 35.4768 75.6591 36.0141 76.7151 37.0887C77.7765 38.1633 78.3073 39.6576 78.3073 41.5716C78.3073 43.4695 77.782 44.9558 76.7314 46.0304C75.6808 47.0996 74.2765 47.6343 72.5183 47.6343C70.7383 47.6343 69.323 47.1023 68.2725 46.0384C67.2219 44.9691 66.6966 43.4989 66.6966 41.6277ZM69.1869 41.5475C69.1869 42.8787 69.4999 43.8892 70.1259 44.5789C70.7519 45.2632 71.5466 45.6053 72.5101 45.6053C73.4736 45.6053 74.2629 45.2659 74.878 44.5869C75.4985 43.9026 75.8088 42.8787 75.8088 41.5154C75.8088 40.1682 75.5067 39.1631 74.9025 38.5001C74.3037 37.8372 73.5062 37.5057 72.5101 37.5057C71.514 37.5057 70.7111 37.8425 70.1014 38.5162C69.4918 39.1844 69.1869 40.1949 69.1869 41.5475Z" fill="#333333"/>
<path d="M80.1689 47.4338V35.6773H83.786L85.9579 43.6967L88.1053 35.6773H91.7306V47.4338H89.4852V38.1793L87.1092 47.4338H84.7821L82.4143 38.1793V47.4338H80.1689Z" fill="#333333"/>
<path fill-rule="evenodd" clip-rule="evenodd" d="M23 4L0 13.2V50L22.041 50V44.7629L12.6747 38.5187C11.3417 37.63 10.541 36.1339 10.541 34.5318V31.6709C8.88767 31.2453 7.66602 29.7445 7.66602 27.9583C7.66602 25.8412 9.38226 24.125 11.4993 24.125C13.6164 24.125 15.3327 25.8412 15.3327 27.9583C15.3327 29.7445 14.111 31.2453 12.4577 31.6709V34.5318C12.4577 35.4931 12.9381 36.3907 13.7379 36.9239L22.041 42.4593V22.2083H18.02L22.9997 13.5833L27.9793 22.2083H23.9577V48.2093L32.2608 42.6739C33.0606 42.1407 33.541 41.2431 33.541 40.2818V37.5417H31.6246V31.7917H37.3746V37.5417H35.4577V40.2818C35.4577 41.8839 34.657 43.38 33.324 44.2687L24.727 50L46 50V13.2L23 4Z" fill="#257AC9"/>
</svg>
