<svg width="112" height="50" viewBox="0 0 112 50" fill="none" xmlns="http://www.w3.org/2000/svg">
<path fill-rule="evenodd" clip-rule="evenodd" d="M15.0856 30.7368L16.9045 30.2828V10.9082L15.0856 10.4541V10H31.3039V15.4491H30.3945C30.0105 15.1464 29.677 14.7629 29.3941 14.2987C28.7474 13.2089 28.424 12.0283 28.424 10.7568H21.9064V20.2927H25.3926C25.534 19.5258 25.7968 18.8094 26.1807 18.1434C26.3424 17.8406 26.5344 17.548 26.7567 17.2655H27.6662V24.0768H26.7567C26.5344 23.7943 26.3424 23.5017 26.1807 23.1989C25.7968 22.5329 25.534 21.8165 25.3926 21.0496H21.9064V30.4341H29.0303C29.0303 29.1627 29.3537 27.982 30.0004 26.8922C30.2833 26.428 30.6168 26.0446 31.0008 25.7418H31.9102V31.1909H15.0856V30.7368ZM34.6243 31.1909V30.7368L36.4432 30.2828V10.9082L34.6243 10.4541V10H43.264V10.4541L41.4451 10.9082V20.2927H47.9627V10.9082L46.1438 10.4541V10H54.7835V10.4541L52.9646 10.9082V30.2828L54.7835 30.7368V31.1909H46.1438V30.7368L47.9627 30.2828V21.0496H41.4451V30.2828L43.264 30.7368V31.1909H34.6243ZM60.2366 29.8287V13.7841L69.4825 31.4937H70.3919L77.5159 13.7841V30.2828L75.697 30.7368V31.1909H84.3367V30.7368L82.5178 30.2828V10.9082L84.3367 10.4541V10H81.1536C79.941 10 79.0417 10.2119 78.4556 10.6357C77.8695 11.0394 77.4047 11.6852 77.0612 12.5732L71.9986 25.1969L65.39 12.5732C64.9454 11.7255 64.4099 11.0898 63.7834 10.666C63.1771 10.222 62.3485 10 61.2976 10H57.5083V10.4541L59.3271 10.9082V29.8287L56.902 30.7368V31.1909H62.6617V30.7368L60.2366 29.8287ZM53.472 39.4392L52.7541 39.2582C52.6554 39.7139 52.4667 40.0576 52.1879 40.2892C51.9091 40.5208 51.5687 40.6366 51.1666 40.6366C50.836 40.6366 50.5288 40.5516 50.2451 40.3816C49.9614 40.2116 49.7517 39.9554 49.6161 39.6129C49.4828 39.268 49.4162 38.8652 49.4162 38.4045C49.4162 38.0473 49.473 37.7012 49.5865 37.3661C49.6999 37.0286 49.8961 36.7601 50.1748 36.5605C50.4561 36.361 50.8052 36.2612 51.2221 36.2612C51.5847 36.2612 51.8857 36.3511 52.125 36.531C52.3643 36.7108 52.5469 36.9978 52.6727 37.392L53.3795 37.2257C53.2339 36.7256 52.9761 36.3376 52.6061 36.0616C52.236 35.7857 51.7796 35.6478 51.2369 35.6478C50.7583 35.6478 50.3192 35.7574 49.9195 35.9767C49.5223 36.1935 49.2152 36.5125 48.9981 36.9338C48.7834 37.3526 48.6761 37.8441 48.6761 38.4082C48.6761 38.9256 48.7711 39.4097 48.9611 39.8605C49.1535 40.3114 49.4323 40.6563 49.7974 40.8952C50.165 41.1317 50.6411 41.25 51.2258 41.25C51.7907 41.25 52.2681 41.096 52.6579 40.7881C53.0501 40.4777 53.3215 40.0281 53.472 39.4392ZM15 41.1576V35.7401H16.0805L17.3646 39.576C17.483 39.9332 17.5694 40.2005 17.6237 40.3779C17.6853 40.1808 17.7816 39.8913 17.9123 39.5095L19.2112 35.7401H20.177V41.1576H19.485V36.6234L17.9086 41.1576H17.261L15.692 36.5457V41.1576H15ZM21.1184 41.1576L23.2018 35.7401H23.9752L26.1955 41.1576H25.3777L24.7449 39.5169H22.4765L21.8807 41.1576H21.1184ZM22.6837 38.933H24.5229L23.9567 37.4326C23.784 36.9769 23.6557 36.6024 23.5719 36.3092C23.5028 36.6566 23.4053 37.0015 23.2795 37.344L22.6837 38.933ZM27.1406 35.7401V41.1576H27.8289V36.9005L30.6783 41.1576H31.4147V35.7401H30.7264V39.9936L27.877 35.7401H27.1406ZM36.5636 35.7401H37.2815V38.8702C37.2815 39.4146 37.2198 39.847 37.0965 40.1672C36.9731 40.4875 36.7499 40.7487 36.4267 40.9507C36.106 41.1502 35.6841 41.25 35.1611 41.25C34.6529 41.25 34.2372 41.1625 33.914 40.9876C33.5909 40.8127 33.3602 40.5602 33.2221 40.2301C33.0839 39.8975 33.0148 39.4442 33.0148 38.8702V35.7401H33.7327V38.8665C33.7327 39.337 33.7759 39.6844 33.8622 39.9086C33.9511 40.1303 34.1015 40.3015 34.3137 40.4222C34.5283 40.5429 34.7898 40.6033 35.0982 40.6033C35.6262 40.6033 36.0024 40.4838 36.2269 40.2448C36.4514 40.0059 36.5636 39.5464 36.5636 38.8665V35.7401ZM38.8964 35.7401V41.1576H39.6143V38.6965H42.1603V38.0572H39.6143V36.3795H42.5562V35.7401H38.8964ZM42.8537 41.1576L44.9371 35.7401H45.7105L47.9308 41.1576H47.113L46.4802 39.5169H44.2118L43.616 41.1576H42.8537ZM44.4191 38.933H46.2582L45.692 37.4326C45.5193 36.9769 45.3911 36.6024 45.3072 36.3092C45.2381 36.6566 45.1407 37.0015 45.0148 37.344L44.4191 38.933ZM56.1193 41.1576V36.3795H54.332V35.7401H58.632V36.3795H56.8372V41.1576H56.1193ZM64.0288 35.7401H63.3109V38.8665C63.3109 39.5464 63.1987 40.0059 62.9742 40.2448C62.7497 40.4838 62.3734 40.6033 61.8455 40.6033C61.5371 40.6033 61.2756 40.5429 61.061 40.4222C60.8488 40.3015 60.6983 40.1303 60.6095 39.9086C60.5232 39.6844 60.48 39.337 60.48 38.8665V35.7401H59.7621V38.8702C59.7621 39.4442 59.8312 39.8975 59.9693 40.2301C60.1075 40.5602 60.3382 40.8127 60.6613 40.9876C60.9845 41.1625 61.4002 41.25 61.9084 41.25C62.4314 41.25 62.8533 41.1502 63.174 40.9507C63.4972 40.7487 63.7204 40.4875 63.8438 40.1672C63.9671 39.847 64.0288 39.4146 64.0288 38.8702V35.7401ZM65.6178 41.1576V35.7401H68.0231C68.5067 35.7401 68.8743 35.7894 69.1259 35.888C69.3775 35.984 69.5786 36.1553 69.7291 36.4016C69.8796 36.648 69.9548 36.9202 69.9548 37.2183C69.9548 37.6026 69.8302 37.9266 69.5811 38.1902C69.3319 38.4538 68.947 38.6213 68.4265 38.6928C68.6164 38.7839 68.7608 38.8739 68.8594 38.9625C69.0691 39.1547 69.2677 39.3949 69.4552 39.6831L70.3989 41.1576H69.4959L68.778 40.0305C68.5683 39.7053 68.3957 39.4565 68.26 39.284C68.1243 39.1116 68.0022 38.9909 67.8936 38.9219C67.7875 38.8529 67.679 38.8049 67.568 38.7778C67.4866 38.7605 67.3533 38.7519 67.1683 38.7519H66.3357V41.1576H65.6178ZM66.3357 38.1311H67.8788C68.2069 38.1311 68.4635 38.0978 68.6485 38.0313C68.8335 37.9623 68.9742 37.8539 69.0704 37.7061C69.1666 37.5558 69.2147 37.3932 69.2147 37.2183C69.2147 36.9621 69.121 36.7515 68.9335 36.5864C68.7484 36.4213 68.4549 36.3388 68.0527 36.3388H66.3357V38.1311ZM71.5845 35.7401V41.1576H72.3024V35.7401H71.5845ZM73.9432 41.1576V35.7401H74.6796L77.529 39.9936V35.7401H78.2173V41.1576H77.4809L74.6315 36.9005V41.1576H73.9432ZM82.3448 38.3971V39.0328H83.9398V40.0416C83.7868 40.1771 83.5623 40.3052 83.2663 40.4259C82.9702 40.5442 82.6668 40.6033 82.3559 40.6033C81.9982 40.6033 81.6603 40.5245 81.342 40.3668C81.0238 40.2091 80.7808 39.9677 80.613 39.6425C80.4477 39.3173 80.3651 38.9133 80.3651 38.4304C80.3651 38.0387 80.4341 37.6753 80.5723 37.3403C80.6537 37.1456 80.7672 36.967 80.9127 36.8044C81.0608 36.6418 81.2544 36.5113 81.4937 36.4127C81.733 36.3117 82.0167 36.2612 82.3448 36.2612C82.6187 36.2612 82.8678 36.3092 83.0923 36.4053C83.3168 36.4989 83.4895 36.6246 83.6104 36.7823C83.7313 36.9399 83.8324 37.1567 83.9139 37.4326L84.5615 37.2553C84.4677 36.8907 84.3308 36.595 84.1507 36.3684C83.9706 36.1417 83.7214 35.9656 83.4032 35.8399C83.0874 35.7118 82.7334 35.6478 82.3411 35.6478C81.8009 35.6478 81.3235 35.7586 80.909 35.9803C80.4946 36.2021 80.1763 36.5421 79.9543 37.0003C79.7348 37.456 79.625 37.9475 79.625 38.4747C79.625 39.0069 79.736 39.4885 79.958 39.9197C80.18 40.3508 80.5082 40.6809 80.9424 40.91C81.379 41.1367 81.8638 41.25 82.3967 41.25C82.7914 41.25 83.1762 41.1798 83.5512 41.0394C83.9262 40.8965 84.2901 40.6846 84.6429 40.4038V38.3934L82.3448 38.3971Z" fill="#33509B"/>
<path fill-rule="evenodd" clip-rule="evenodd" d="M100 1H0V0H100V1ZM0 49H100V50H0V49Z" fill="#33509B"/>
</svg>
