<svg width="705" height="225" viewBox="0 0 705 225" fill="none" xmlns="http://www.w3.org/2000/svg">
<path d="M312.928 32.6V30.24C315.388 29.98 317.268 28.8801 317.268 26.0201C317.268 21.0601 310.188 22.02 310.188 20.2C310.188 19.68 310.608 19.32 311.968 19.3C313.588 19.28 315.168 19.7201 316.368 20.62V17.22C315.488 16.72 314.228 16.36 312.928 16.2V13.8H310.328V16.18C308.028 16.48 306.388 17.8 306.388 20.22C306.388 25.22 313.468 24.14 313.468 26.16C313.468 26.86 312.848 27.1 311.388 27.1C309.788 27.1 307.948 26.66 306.288 25.5201V29.0201C307.428 29.6601 308.828 30.08 310.328 30.24V32.6H312.928Z" fill="#4EB543"/>
<path d="M318.891 15.4V30H322.291V15.4H318.891Z" fill="#4EB543"/>
<path d="M327.78 30V20.4H324.38V30H327.78ZM328.02 17.16C328.02 15.86 327.12 15.3 326.08 15.3C325.06 15.3 324.14 15.86 324.14 17.16C324.14 18.48 325.06 19.04 326.08 19.04C327.12 19.04 328.02 18.48 328.02 17.16Z" fill="#4EB543"/>
<path d="M333.248 30V23.84C333.688 23.28 334.308 23 334.848 23C335.448 23 335.948 23.38 335.948 24.14V30H339.348V23.84C339.348 23.7601 339.348 23.7 339.348 23.6201C339.768 23.2001 340.288 23 340.748 23C341.348 23 341.848 23.38 341.848 24.14V30H345.248V23.84C345.248 22.4201 344.588 20.1 341.708 20.1C340.448 20.1 339.428 20.7 338.648 21.4201C338.128 20.6801 337.248 20.1 335.808 20.1C334.428 20.1 333.348 20.8201 332.848 21.4201V20.4H329.848V30H333.248Z" fill="#4EB543"/>
<path d="M350.612 30V20.4H347.212V30H350.612ZM350.852 17.16C350.852 15.86 349.952 15.3 348.912 15.3C347.892 15.3 346.972 15.86 346.972 17.16C346.972 18.48 347.892 19.04 348.912 19.04C349.952 19.04 350.852 18.48 350.852 17.16Z" fill="#4EB543"/>
<path d="M353.44 17.7V20.4H351.92V23.2001H353.44V27C353.44 29.54 355.18 30.3 357.04 30.3C358.02 30.3 358.88 30.16 359.64 29.9V27.26C359.12 27.44 358.66 27.5 358.1 27.5C357.24 27.5 356.84 27.08 356.84 26.32V23.2001H359.44V20.4H356.84V16.9L353.44 17.7Z" fill="#4EB543"/>
<path d="M374.958 22.32V19.52H365.358V22.32H374.958ZM374.958 26.48V23.68H365.358V26.48H374.958Z" fill="#4EB543"/>
<path d="M384.735 21.76C385.155 19.62 386.615 19.1 388.215 19.1C389.435 19.1 390.695 19.52 391.615 20.16V16.9601C390.355 16.4001 388.955 16.1 387.615 16.1C384.175 16.1 381.015 18.12 381.015 23.08C381.015 27.6 382.775 30.3 387.395 30.3C390.255 30.3 392.775 28.72 392.775 25.5C392.775 22.54 390.515 21.02 387.975 21.02C386.775 21.02 385.775 21.26 384.735 21.76ZM384.695 24.6C385.395 24.2201 386.115 24.0201 386.795 24.0201C387.995 24.0201 389.075 24.44 389.075 25.68C389.075 26.88 388.135 27.4 387.095 27.4C385.875 27.4 384.955 26.9001 384.695 24.6Z" fill="#4EB543"/>
<path d="M396.357 32.8601L398.557 27.06H394.957L393.597 32.8601H396.357ZM398.577 22.26C398.577 20.9001 397.637 20.3 396.537 20.3C395.457 20.3 394.497 20.9001 394.497 22.26C394.497 23.64 395.457 24.24 396.537 24.24C397.637 24.24 398.577 23.64 398.577 22.26Z" fill="#4EB543"/>
<path d="M85.5392 208.08V206.192C87.5392 206.08 89.1552 205.216 89.1552 203.056C89.1552 199.056 82.8352 200.352 82.8352 197.936C82.8352 196.976 83.7152 196.576 85.0752 196.576C86.2752 196.56 87.5232 196.896 88.4352 197.504V195.76C87.6832 195.312 86.6112 195.024 85.5392 194.944V193.04H84.1312V194.96C82.3712 195.168 80.9792 196.144 80.9792 197.968C80.9792 201.936 87.2992 200.56 87.2992 203.152C87.2992 204.208 86.3232 204.544 84.8832 204.544C83.6032 204.544 82.1632 204.224 80.9312 203.44V205.232C81.8272 205.728 82.9472 206.048 84.1312 206.176V208.08H85.5392Z" fill="#4EB543"/>
<path d="M90.2872 202.16C90.2872 204.816 92.3032 206.208 94.4472 206.208C96.6072 206.208 98.6072 204.816 98.6072 202.16C98.6072 199.504 96.6072 198.112 94.4472 198.112C92.3032 198.112 90.2872 199.504 90.2872 202.16ZM96.8632 202.16C96.8632 203.664 95.8712 204.64 94.4472 204.64C93.0072 204.64 92.0152 203.664 92.0152 202.16C92.0152 200.656 93.0072 199.68 94.4472 199.68C95.8712 199.68 96.8632 200.656 96.8632 202.16Z" fill="#4EB543"/>
<path d="M110.654 196.224V194.72C110.142 194.528 109.454 194.384 108.75 194.384C107.886 194.384 107.006 194.64 106.446 195.36C105.63 194.944 104.878 194.752 103.982 194.752C102.206 194.752 100.814 195.696 100.814 197.648V198.32H99.4222V199.824H100.814V206H102.526V199.824H105.886V206H107.598V199.824H110.238V198.32H107.598V197.328C107.598 196.128 108.334 195.888 109.166 195.888C109.71 195.888 110.27 196.032 110.654 196.224ZM102.526 198.32V197.648C102.526 196.672 103.23 196.224 104.222 196.224C104.974 196.224 105.454 196.368 105.934 196.672C105.918 196.88 105.902 197.104 105.902 197.36V198.32H102.526Z" fill="#4EB543"/>
<path d="M111.086 200.4C111.086 203.152 115.726 202.56 115.726 203.984C115.726 204.608 115.022 204.768 114.062 204.768C113.102 204.768 111.934 204.48 111.134 203.952V205.472C111.886 205.936 113.022 206.208 114.142 206.208C115.886 206.208 117.454 205.648 117.454 203.952C117.454 201.152 112.83 201.84 112.83 200.352C112.83 199.728 113.566 199.52 114.254 199.52C115.166 199.52 116.27 199.84 116.91 200.272V198.768C116.158 198.384 115.198 198.112 114.142 198.112C112.622 198.112 111.086 198.72 111.086 200.4Z" fill="#4EB543"/>
<path d="M118.522 202.16C118.522 204.864 120.522 206.208 122.874 206.208C123.946 206.208 124.922 206.016 125.626 205.68V204.208C124.97 204.528 124.122 204.752 123.194 204.752C121.786 204.752 120.442 204.176 120.25 202.8H126.026C126.522 200.576 125.466 198.112 122.41 198.112C120.634 198.112 118.522 199.376 118.522 202.16ZM124.49 201.52H120.234C120.298 200.224 121.338 199.536 122.49 199.536C124.17 199.536 124.586 200.848 124.49 201.52Z" fill="#4EB543"/>
<path d="M128.327 196V198.32H126.951V199.824H128.327V203.664C128.327 205.456 129.479 206.192 130.967 206.192C131.719 206.192 132.455 206.064 133.031 205.856V204.384C132.551 204.576 132.039 204.688 131.479 204.688C130.487 204.688 130.023 204.352 130.023 203.344V199.824H132.807V198.32H130.023V195.584L128.327 196Z" fill="#4EB543"/>
<path d="M145.181 199.648V198.112H138.141V199.648H145.181ZM145.181 202.672V201.152H138.141V202.672H145.181Z" fill="#4EB543"/>
<path d="M150.744 200.56C150.744 203.744 152.248 206.208 155.624 206.208C159 206.208 160.504 203.744 160.504 200.56C160.504 197.376 159 194.912 155.624 194.912C152.248 194.912 150.744 197.376 150.744 200.56ZM158.664 200.56C158.664 203.088 157.704 204.544 155.624 204.544C153.528 204.544 152.584 203.088 152.584 200.56C152.584 198.032 153.528 196.576 155.624 196.576C157.704 196.576 158.664 198.032 158.664 200.56Z" fill="#4EB543"/>
<path d="M163.241 208.368L164.601 204.4H162.793L161.849 208.368H163.241ZM164.601 199.376C164.601 198.656 164.105 198.336 163.513 198.336C162.953 198.336 162.441 198.656 162.441 199.376C162.441 200.08 162.953 200.416 163.513 200.416C164.105 200.416 164.601 200.08 164.601 199.376Z" fill="#4EB543"/>
<path d="M316.641 208.08V206.192C318.641 206.08 320.257 205.216 320.257 203.056C320.257 199.056 313.937 200.352 313.937 197.936C313.937 196.976 314.817 196.576 316.177 196.576C317.377 196.56 318.625 196.896 319.537 197.504V195.76C318.785 195.312 317.713 195.024 316.641 194.944V193.04H315.233V194.96C313.473 195.168 312.081 196.144 312.081 197.968C312.081 201.936 318.401 200.56 318.401 203.152C318.401 204.208 317.425 204.544 315.985 204.544C314.705 204.544 313.265 204.224 312.033 203.44V205.232C312.929 205.728 314.049 206.048 315.233 206.176V208.08H316.641Z" fill="#4EB543"/>
<path d="M321.389 202.16C321.389 204.816 323.405 206.208 325.549 206.208C327.709 206.208 329.709 204.816 329.709 202.16C329.709 199.504 327.709 198.112 325.549 198.112C323.405 198.112 321.389 199.504 321.389 202.16ZM327.965 202.16C327.965 203.664 326.973 204.64 325.549 204.64C324.109 204.64 323.117 203.664 323.117 202.16C323.117 200.656 324.109 199.68 325.549 199.68C326.973 199.68 327.965 200.656 327.965 202.16Z" fill="#4EB543"/>
<path d="M341.756 196.224V194.72C341.244 194.528 340.556 194.384 339.852 194.384C338.988 194.384 338.108 194.64 337.548 195.36C336.732 194.944 335.98 194.752 335.084 194.752C333.308 194.752 331.916 195.696 331.916 197.648V198.32H330.524V199.824H331.916V206H333.628V199.824H336.988V206H338.7V199.824H341.34V198.32H338.7V197.328C338.7 196.128 339.436 195.888 340.268 195.888C340.812 195.888 341.372 196.032 341.756 196.224ZM333.628 198.32V197.648C333.628 196.672 334.332 196.224 335.324 196.224C336.076 196.224 336.556 196.368 337.036 196.672C337.02 196.88 337.004 197.104 337.004 197.36V198.32H333.628Z" fill="#4EB543"/>
<path d="M342.187 200.4C342.187 203.152 346.827 202.56 346.827 203.984C346.827 204.608 346.123 204.768 345.163 204.768C344.203 204.768 343.035 204.48 342.235 203.952V205.472C342.987 205.936 344.123 206.208 345.243 206.208C346.987 206.208 348.555 205.648 348.555 203.952C348.555 201.152 343.931 201.84 343.931 200.352C343.931 199.728 344.667 199.52 345.355 199.52C346.267 199.52 347.371 199.84 348.011 200.272V198.768C347.259 198.384 346.299 198.112 345.243 198.112C343.723 198.112 342.187 198.72 342.187 200.4Z" fill="#4EB543"/>
<path d="M349.623 202.16C349.623 204.864 351.623 206.208 353.975 206.208C355.047 206.208 356.023 206.016 356.727 205.68V204.208C356.071 204.528 355.223 204.752 354.295 204.752C352.887 204.752 351.543 204.176 351.351 202.8H357.127C357.623 200.576 356.567 198.112 353.511 198.112C351.735 198.112 349.623 199.376 349.623 202.16ZM355.591 201.52H351.335C351.399 200.224 352.439 199.536 353.591 199.536C355.271 199.536 355.687 200.848 355.591 201.52Z" fill="#4EB543"/>
<path d="M359.429 196V198.32H358.053V199.824H359.429V203.664C359.429 205.456 360.581 206.192 362.069 206.192C362.821 206.192 363.557 206.064 364.133 205.856V204.384C363.653 204.576 363.141 204.688 362.581 204.688C361.589 204.688 361.125 204.352 361.125 203.344V199.824H363.909V198.32H361.125V195.584L359.429 196Z" fill="#4EB543"/>
<path d="M376.282 199.648V198.112H369.242V199.648H376.282ZM376.282 202.672V201.152H369.242V202.672H376.282Z" fill="#4EB543"/>
<path d="M383.686 199.984C383.91 197.376 385.414 196.528 387.062 196.528C387.958 196.528 388.902 196.768 389.702 197.216V195.552C388.854 195.136 387.862 194.912 386.886 194.912C384.102 194.912 381.846 196.656 381.846 200.656C381.846 204.096 383.27 206.208 386.598 206.208C388.774 206.208 390.614 204.96 390.614 202.56C390.614 200.256 388.726 199.088 386.854 199.088C385.686 199.088 384.726 199.36 383.686 199.984ZM383.702 201.6C384.486 200.976 385.43 200.688 386.342 200.688C387.606 200.688 388.774 201.152 388.774 202.64C388.774 204.08 387.718 204.64 386.454 204.64C384.918 204.64 383.91 203.792 383.702 201.6Z" fill="#4EB543"/>
<path d="M393.14 208.368L394.5 204.4H392.692L391.748 208.368H393.14ZM394.5 199.376C394.5 198.656 394.004 198.336 393.412 198.336C392.852 198.336 392.34 198.656 392.34 199.376C392.34 200.08 392.852 200.416 393.412 200.416C394.004 200.416 394.5 200.08 394.5 199.376Z" fill="#4EB543"/>
<path d="M543.453 208.08V206.192C545.453 206.08 547.069 205.216 547.069 203.056C547.069 199.056 540.749 200.352 540.749 197.936C540.749 196.976 541.629 196.576 542.989 196.576C544.189 196.56 545.437 196.896 546.349 197.504V195.76C545.597 195.312 544.525 195.024 543.453 194.944V193.04H542.045V194.96C540.285 195.168 538.893 196.144 538.893 197.968C538.893 201.936 545.213 200.56 545.213 203.152C545.213 204.208 544.237 204.544 542.797 204.544C541.517 204.544 540.077 204.224 538.845 203.44V205.232C539.741 205.728 540.861 206.048 542.045 206.176V208.08H543.453Z" fill="#4EB543"/>
<path d="M548.201 202.16C548.201 204.816 550.217 206.208 552.361 206.208C554.521 206.208 556.521 204.816 556.521 202.16C556.521 199.504 554.521 198.112 552.361 198.112C550.217 198.112 548.201 199.504 548.201 202.16ZM554.777 202.16C554.777 203.664 553.785 204.64 552.361 204.64C550.921 204.64 549.929 203.664 549.929 202.16C549.929 200.656 550.921 199.68 552.361 199.68C553.785 199.68 554.777 200.656 554.777 202.16Z" fill="#4EB543"/>
<path d="M568.568 196.224V194.72C568.056 194.528 567.368 194.384 566.664 194.384C565.8 194.384 564.92 194.64 564.36 195.36C563.544 194.944 562.792 194.752 561.896 194.752C560.12 194.752 558.728 195.696 558.728 197.648V198.32H557.336V199.824H558.728V206H560.44V199.824H563.8V206H565.512V199.824H568.152V198.32H565.512V197.328C565.512 196.128 566.248 195.888 567.08 195.888C567.624 195.888 568.184 196.032 568.568 196.224ZM560.44 198.32V197.648C560.44 196.672 561.144 196.224 562.136 196.224C562.888 196.224 563.368 196.368 563.848 196.672C563.832 196.88 563.816 197.104 563.816 197.36V198.32H560.44Z" fill="#4EB543"/>
<path d="M569 200.4C569 203.152 573.64 202.56 573.64 203.984C573.64 204.608 572.936 204.768 571.976 204.768C571.016 204.768 569.848 204.48 569.048 203.952V205.472C569.8 205.936 570.936 206.208 572.056 206.208C573.8 206.208 575.368 205.648 575.368 203.952C575.368 201.152 570.744 201.84 570.744 200.352C570.744 199.728 571.48 199.52 572.168 199.52C573.08 199.52 574.184 199.84 574.824 200.272V198.768C574.072 198.384 573.112 198.112 572.056 198.112C570.536 198.112 569 198.72 569 200.4Z" fill="#4EB543"/>
<path d="M576.436 202.16C576.436 204.864 578.436 206.208 580.788 206.208C581.86 206.208 582.836 206.016 583.54 205.68V204.208C582.884 204.528 582.036 204.752 581.108 204.752C579.7 204.752 578.356 204.176 578.164 202.8H583.94C584.436 200.576 583.38 198.112 580.324 198.112C578.548 198.112 576.436 199.376 576.436 202.16ZM582.404 201.52H578.148C578.212 200.224 579.252 199.536 580.404 199.536C582.084 199.536 582.5 200.848 582.404 201.52Z" fill="#4EB543"/>
<path d="M586.241 196V198.32H584.865V199.824H586.241V203.664C586.241 205.456 587.393 206.192 588.881 206.192C589.633 206.192 590.369 206.064 590.945 205.856V204.384C590.465 204.576 589.953 204.688 589.393 204.688C588.401 204.688 587.937 204.352 587.937 203.344V199.824H590.721V198.32H587.937V195.584L586.241 196Z" fill="#4EB543"/>
<path d="M603.095 199.648V198.112H596.055V199.648H603.095ZM603.095 202.672V201.152H596.055V202.672H603.095Z" fill="#4EB543"/>
<path d="M611.362 195.12L608.722 196.128V197.808L610.898 196.992V204.352H608.722V206H614.642V204.352H612.706V195.12H611.362Z" fill="#4EB543"/>
<path d="M616.056 196.016V197.776C617.208 196.944 618.408 196.56 619.512 196.56C620.856 196.56 621.672 197.056 621.672 198C621.672 199.232 620.568 199.792 619.304 200.528C617.656 201.504 615.688 202.512 615.688 205.168V206H623.576V204.352L617.736 204.368C617.752 203.28 619.08 202.608 620.488 201.776C621.96 200.896 623.496 199.808 623.496 197.968C623.496 195.936 621.88 194.912 619.672 194.912C618.408 194.912 617.176 195.248 616.056 196.016Z" fill="#4EB543"/>
<path d="M626.327 208.368L627.687 204.4H625.879L624.935 208.368H626.327ZM627.687 199.376C627.687 198.656 627.191 198.336 626.599 198.336C626.039 198.336 625.527 198.656 625.527 199.376C625.527 200.08 626.039 200.416 626.599 200.416C627.191 200.416 627.687 200.08 627.687 199.376Z" fill="#4EB543"/>
<path d="M15 178C15 182.418 18.5817 186 23 186H222C226.418 186 230 182.418 230 178V61C230 56.5817 226.418 53 222 53H23C18.5817 53 15 56.5817 15 61V178Z" fill="white"/>
<path fill-rule="evenodd" clip-rule="evenodd" d="M222 184H23C19.6863 184 17 181.314 17 178V61C17 57.6863 19.6863 55 23 55H222C225.314 55 228 57.6863 228 61V178C228 181.314 225.314 184 222 184ZM23 186C18.5817 186 15 182.418 15 178V61C15 56.5817 18.5817 53 23 53H222C226.418 53 230 56.5817 230 61V178C230 182.418 226.418 186 222 186H23Z" fill="#D2D5E3"/>
<path d="M245 178C245 182.418 248.582 186 253 186H452C456.418 186 460 182.418 460 178V61C460 56.5817 456.418 53 452 53H253C248.582 53 245 56.5817 245 61V178Z" fill="white"/>
<path fill-rule="evenodd" clip-rule="evenodd" d="M452 184H253C249.686 184 247 181.314 247 178V61C247 57.6863 249.686 55 253 55H452C455.314 55 458 57.6863 458 61V178C458 181.314 455.314 184 452 184ZM253 186C248.582 186 245 182.418 245 178V61C245 56.5817 248.582 53 253 53H452C456.418 53 460 56.5817 460 61V178C460 182.418 456.418 186 452 186H253Z" fill="#D2D5E3"/>
<path d="M475 178C475 182.418 478.582 186 483 186H682C686.418 186 690 182.418 690 178V61C690 56.5817 686.418 53 682 53H483C478.582 53 475 56.5817 475 61V178Z" fill="white"/>
<path fill-rule="evenodd" clip-rule="evenodd" d="M682 184H483C479.686 184 477 181.314 477 178V61C477 57.6863 479.686 55 483 55H682C685.314 55 688 57.6863 688 61V178C688 181.314 685.314 184 682 184ZM483 186C478.582 186 475 182.418 475 178V61C475 56.5817 478.582 53 483 53H682C686.418 53 690 56.5817 690 61V178C690 182.418 686.418 186 682 186H483Z" fill="#D2D5E3"/>
<path d="M15 61C15 56.5817 18.5817 53 23 53H222C226.418 53 230 56.5817 230 61V77H15V61Z" fill="#D2D5E3"/>
<path d="M245 61C245 56.5817 248.582 53 253 53H452C456.418 53 460 56.5817 460 61V77H245V61Z" fill="#D2D5E3"/>
<path d="M475 61C475 56.5817 478.582 53 483 53H682C686.418 53 690 56.5817 690 61V77H475V61Z" fill="#D2D5E3"/>
<path d="M33 65C33 67.2091 31.2091 69 29 69C26.7909 69 25 67.2091 25 65C25 62.7909 26.7909 61 29 61C31.2091 61 33 62.7909 33 65Z" fill="#E84E1B"/>
<path d="M45 65C45 67.2091 43.2091 69 41 69C38.7909 69 37 67.2091 37 65C37 62.7909 38.7909 61 41 61C43.2091 61 45 62.7909 45 65Z" fill="#E68A00"/>
<path d="M57 65C57 67.2091 55.2091 69 53 69C50.7909 69 49 67.2091 49 65C49 62.7909 50.7909 61 53 61C55.2091 61 57 62.7909 57 65Z" fill="#4EB543"/>
<path d="M263 65C263 67.2091 261.209 69 259 69C256.791 69 255 67.2091 255 65C255 62.7909 256.791 61 259 61C261.209 61 263 62.7909 263 65Z" fill="#E84E1B"/>
<path d="M275 65C275 67.2091 273.209 69 271 69C268.791 69 267 67.2091 267 65C267 62.7909 268.791 61 271 61C273.209 61 275 62.7909 275 65Z" fill="#E68A00"/>
<path d="M287 65C287 67.2091 285.209 69 283 69C280.791 69 279 67.2091 279 65C279 62.7909 280.791 61 283 61C285.209 61 287 62.7909 287 65Z" fill="#4EB543"/>
<path d="M493 65C493 67.2091 491.209 69 489 69C486.791 69 485 67.2091 485 65C485 62.7909 486.791 61 489 61C491.209 61 493 62.7909 493 65Z" fill="#E84E1B"/>
<path d="M505 65C505 67.2091 503.209 69 501 69C498.791 69 497 67.2091 497 65C497 62.7909 498.791 61 501 61C503.209 61 505 62.7909 505 65Z" fill="#E68A00"/>
<path d="M517 65C517 67.2091 515.209 69 513 69C510.791 69 509 67.2091 509 65C509 62.7909 510.791 61 513 61C515.209 61 517 62.7909 517 65Z" fill="#4EB543"/>
<path d="M30 89C30 87.8954 30.8954 87 32 87H83C84.1046 87 85 87.8954 85 89V122C85 123.105 84.1046 124 83 124H32C30.8954 124 30 123.105 30 122V89Z" fill="#4EB543"/>
<path d="M260 89C260 87.8954 260.895 87 262 87H313C314.105 87 315 87.8954 315 89V122C315 123.105 314.105 124 313 124H262C260.895 124 260 123.105 260 122V89Z" fill="#4EB543"/>
<path d="M490 89C490 87.8954 490.895 87 492 87H543C544.105 87 545 87.8954 545 89V122C545 123.105 544.105 124 543 124H492C490.895 124 490 123.105 490 122V89Z" fill="#4EB543"/>
<path d="M30 136C30 134.895 30.8954 134 32 134H83C84.1046 134 85 134.895 85 136V169C85 170.105 84.1046 171 83 171H32C30.8954 171 30 170.105 30 169V136Z" fill="#E2E2E2"/>
<path d="M260 136C260 134.895 260.895 134 262 134H313C314.105 134 315 134.895 315 136V169C315 170.105 314.105 171 313 171H262C260.895 171 260 170.105 260 169V136Z" fill="#E2E2E2"/>
<path d="M490 136C490 134.895 490.895 134 492 134H543C544.105 134 545 134.895 545 136V169C545 170.105 544.105 171 543 171H492C490.895 171 490 170.105 490 169V136Z" fill="#E2E2E2"/>
<path d="M95 89C95 87.8954 95.8954 87 97 87H148C149.105 87 150 87.8954 150 89V122C150 123.105 149.105 124 148 124H97C95.8954 124 95 123.105 95 122V89Z" fill="#E2E2E2"/>
<path d="M325 89C325 87.8954 325.895 87 327 87H378C379.105 87 380 87.8954 380 89V122C380 123.105 379.105 124 378 124H327C325.895 124 325 123.105 325 122V89Z" fill="#E2E2E2"/>
<path d="M555 89C555 87.8954 555.895 87 557 87H608C609.105 87 610 87.8954 610 89V122C610 123.105 609.105 124 608 124H557C555.895 124 555 123.105 555 122V89Z" fill="#E2E2E2"/>
<path d="M95 136C95 134.895 95.8954 134 97 134H148C149.105 134 150 134.895 150 136V169C150 170.105 149.105 171 148 171H97C95.8954 171 95 170.105 95 169V136Z" fill="#E2E2E2"/>
<path d="M325 136C325 134.895 325.895 134 327 134H378C379.105 134 380 134.895 380 136V169C380 170.105 379.105 171 378 171H327C325.895 171 325 170.105 325 169V136Z" fill="#E2E2E2"/>
<path d="M555 136C555 134.895 555.895 134 557 134H608C609.105 134 610 134.895 610 136V169C610 170.105 609.105 171 608 171H557C555.895 171 555 170.105 555 169V136Z" fill="#E2E2E2"/>
<path d="M160 89C160 87.8954 160.895 87 162 87H213C214.105 87 215 87.8954 215 89V122C215 123.105 214.105 124 213 124H162C160.895 124 160 123.105 160 122V89Z" fill="#E2E2E2"/>
<path d="M390 89C390 87.8954 390.895 87 392 87H443C444.105 87 445 87.8954 445 89V122C445 123.105 444.105 124 443 124H392C390.895 124 390 123.105 390 122V89Z" fill="#E2E2E2"/>
<path d="M620 89C620 87.8954 620.895 87 622 87H673C674.105 87 675 87.8954 675 89V122C675 123.105 674.105 124 673 124H622C620.895 124 620 123.105 620 122V89Z" fill="#E2E2E2"/>
<path d="M160 136C160 134.895 160.895 134 162 134H213C214.105 134 215 134.895 215 136V169C215 170.105 214.105 171 213 171H162C160.895 171 160 170.105 160 169V136Z" fill="#E2E2E2"/>
<path d="M390 136C390 134.895 390.895 134 392 134H443C444.105 134 445 134.895 445 136V169C445 170.105 444.105 171 443 171H392C390.895 171 390 170.105 390 169V136Z" fill="#E2E2E2"/>
<path d="M620 136C620 134.895 620.895 134 622 134H673C674.105 134 675 134.895 675 136V169C675 170.105 674.105 171 673 171H622C620.895 171 620 170.105 620 169V136Z" fill="#E2E2E2"/>
<path d="M51.1997 105.2C51.1997 109.08 53.0597 112.3 57.4997 112.3C61.9397 112.3 63.7997 109.08 63.7997 105.2C63.7997 101.32 61.9397 98.1001 57.4997 98.1001C53.0597 98.1001 51.1997 101.32 51.1997 105.2ZM60.0997 105.2C60.0997 107.82 59.2797 109.1 57.4997 109.1C55.7197 109.1 54.8997 107.82 54.8997 105.2C54.8997 102.58 55.7197 101.3 57.4997 101.3C59.2797 101.3 60.0997 102.58 60.0997 105.2Z" fill="white"/>
<path d="M285.408 103.76C285.828 101.62 287.288 101.1 288.888 101.1C290.108 101.1 291.368 101.52 292.288 102.16V98.9601C291.028 98.4001 289.628 98.1001 288.288 98.1001C284.848 98.1001 281.688 100.12 281.688 105.08C281.688 109.6 283.448 112.3 288.068 112.3C290.928 112.3 293.448 110.72 293.448 107.5C293.448 104.54 291.188 103.02 288.648 103.02C287.448 103.02 286.448 103.26 285.408 103.76ZM285.368 106.6C286.068 106.22 286.788 106.02 287.468 106.02C288.668 106.02 289.748 106.44 289.748 107.68C289.748 108.88 288.808 109.4 287.768 109.4C286.548 109.4 285.628 108.9 285.368 106.6Z" fill="white"/>
<path d="M510.941 98.4001L507.641 99.6601V102.96L510.041 102.06V108.9H507.641V112H515.761V108.9H513.641V98.4001H510.941Z" fill="white"/>
<path d="M517.391 99.6001V103C518.871 101.84 520.551 101.3 521.911 101.3C522.951 101.3 523.691 101.7 523.691 102.52C523.691 103.56 522.651 103.94 521.391 104.68C519.451 105.82 516.951 107.1 516.951 110.38V112H527.491V108.9H521.191C521.191 108.54 522.331 107.9 523.791 107.02C525.511 105.98 527.391 104.62 527.391 102.32C527.391 99.3001 524.971 98.1001 522.251 98.1001C520.511 98.1001 518.831 98.5801 517.391 99.6001Z" fill="white"/>
<path d="M61.8309 148.86C61.8309 146.66 59.9909 145.16 57.2109 145.16C55.5109 145.16 54.1309 145.5 52.9109 146.12V147.76C54.2309 147.06 55.5509 146.72 56.9909 146.72C59.0709 146.72 60.2109 147.6 60.2109 149C60.2109 150.26 59.2509 151.2 57.2709 151.2L55.3709 151.18V152.78H57.4509C59.2909 152.78 60.7709 153.36 60.7709 155.22C60.7709 157 59.2709 157.66 57.2709 157.66C55.4709 157.68 54.0509 157.4 52.6709 156.68V158.34C54.0109 158.94 55.4709 159.24 57.4109 159.24C60.1309 159.24 62.3909 157.94 62.3909 155.3C62.3909 153.22 61.0109 152.22 59.8509 151.86C61.0109 151.46 61.8309 150.26 61.8309 148.86Z" fill="#333333"/>
<path d="M282.059 149.62C282.059 152.46 284.459 153.88 286.719 153.88C288.279 153.88 289.599 153.5 290.979 152.58C290.779 156.34 288.739 157.64 286.459 157.64C285.379 157.64 284.219 157.4 283.199 156.86V158.46C284.179 158.96 285.339 159.24 286.499 159.24C289.999 159.24 292.679 156.98 292.679 151.98C292.679 147.78 290.879 145.16 286.939 145.16C284.279 145.16 282.059 146.72 282.059 149.62ZM287.059 146.72C289.279 146.72 290.699 148.04 290.959 150.9C289.859 151.88 288.479 152.32 287.139 152.32C285.379 152.32 283.759 151.68 283.759 149.54C283.759 147.48 285.239 146.72 287.059 146.72Z" fill="#333333"/>
<path d="M511.772 145.4L508.472 146.66V148.26L511.332 147.18V157.4H508.472V159H515.552V157.4H513.012V145.4H511.772Z" fill="#333333"/>
<path d="M517.886 145.4L517.446 152.7C518.486 152.32 519.766 152.06 520.966 152.06C523.086 152.06 525.006 152.68 525.006 154.9C525.006 156.74 523.446 157.68 521.226 157.68C519.766 157.68 518.226 157.34 517.066 156.72V158.32C518.246 158.9 519.846 159.24 521.426 159.24C524.386 159.24 526.706 157.66 526.706 154.9C526.706 151.64 524.106 150.54 521.546 150.54C520.746 150.54 519.946 150.64 519.226 150.84L519.466 147H526.046V145.4H517.886Z" fill="#333333"/>
<path d="M122.563 98.3999L119.263 99.6599V101.26L122.123 100.18V110.4H119.263V112H126.343V110.4H123.803V98.3999H122.563Z" fill="#333333"/>
<path d="M347.659 98.3999V99.9999H355.619L349.979 112H351.779L357.459 99.9199V98.3999H347.659Z" fill="#333333"/>
<path d="M576.694 98.3999L573.394 99.6599V101.26L576.254 100.18V110.4H573.394V112H580.474V110.4H577.934V98.3999H576.694Z" fill="#333333"/>
<path d="M591.128 101.86C591.128 99.6599 589.288 98.1599 586.508 98.1599C584.808 98.1599 583.428 98.4999 582.208 99.1199V100.76C583.528 100.06 584.848 99.7199 586.288 99.7199C588.368 99.7199 589.508 100.6 589.508 102C589.508 103.26 588.548 104.2 586.568 104.2L584.668 104.18V105.78H586.748C588.588 105.78 590.068 106.36 590.068 108.22C590.068 110 588.568 110.66 586.568 110.66C584.768 110.68 583.348 110.4 581.968 109.68V111.34C583.308 111.94 584.768 112.24 586.708 112.24C589.428 112.24 591.688 110.94 591.688 108.3C591.688 106.22 590.308 105.22 589.148 104.86C590.308 104.46 591.128 103.26 591.128 101.86Z" fill="#333333"/>
<path d="M123.975 145.4L116.555 154.48V155.98H124.135V159H125.795V155.98H128.355V154.42H125.795V145.4H123.975ZM124.135 154.42H118.615L124.135 147.66V154.42Z" fill="#333333"/>
<path d="M345.532 145.4L342.232 146.66V148.26L345.092 147.18V157.4H342.232V159H349.312V157.4H346.772V145.4H345.532Z" fill="#333333"/>
<path d="M350.786 152.2C350.786 156.22 352.666 159.24 356.786 159.24C360.926 159.24 362.806 156.22 362.806 152.2C362.806 148.18 360.926 145.16 356.786 145.16C352.666 145.16 350.786 148.18 350.786 152.2ZM361.106 152.2C361.106 155.6 359.766 157.64 356.786 157.64C353.826 157.64 352.486 155.6 352.486 152.2C352.486 148.8 353.826 146.76 356.786 146.76C359.766 146.76 361.106 148.8 361.106 152.2Z" fill="#333333"/>
<path d="M576.352 145.4L573.052 146.66V148.26L575.912 147.18V157.4H573.052V159H580.132V157.4H577.592V145.4H576.352Z" fill="#333333"/>
<path d="M583.326 151.82C583.526 148.06 585.566 146.76 587.846 146.76C588.926 146.76 590.086 147 591.106 147.54V145.94C590.126 145.44 588.966 145.16 587.806 145.16C584.306 145.16 581.626 147.42 581.626 152.42C581.626 156.62 583.426 159.24 587.366 159.24C590.026 159.24 592.246 157.68 592.246 154.78C592.246 151.94 589.846 150.52 587.586 150.52C586.026 150.52 584.706 150.9 583.326 151.82ZM583.346 153.5C584.446 152.52 585.826 152.08 587.166 152.08C588.926 152.08 590.546 152.72 590.546 154.86C590.546 156.92 589.066 157.68 587.246 157.68C585.026 157.68 583.606 156.36 583.346 153.5Z" fill="#333333"/>
<path d="M183.118 99.4799V101.16C184.518 100.18 185.958 99.7199 187.338 99.7199C189.298 99.7199 190.438 100.44 190.438 101.78C190.438 103.54 188.898 104.38 187.198 105.38C185.078 106.62 182.638 107.88 182.638 111.2V112H192.218V110.4L184.478 110.42C184.518 108.62 186.378 107.7 188.278 106.58C190.178 105.46 192.118 104.12 192.118 101.8C192.118 99.4799 190.258 98.1599 187.478 98.1599C185.978 98.1599 184.478 98.5399 183.118 99.4799Z" fill="#333333"/>
<path d="M412.485 101.68C412.485 103.04 413.265 103.96 414.325 104.6C412.725 105.54 412.005 107.02 412.005 108.26C412.005 110.34 413.845 112.24 417.565 112.24C421.385 112.24 422.985 110.42 422.985 108.54C422.985 106.94 421.945 105.98 420.645 105.34C421.945 104.44 422.545 103.14 422.505 101.9C422.445 99.9399 420.585 98.1599 417.445 98.1599C413.965 98.1599 412.485 99.9599 412.485 101.68ZM417.645 105.88C419.525 106.44 421.305 106.86 421.305 108.62C421.305 109.86 419.725 110.68 417.605 110.68C415.025 110.68 413.685 109.68 413.685 108.08C413.685 107.08 414.345 105.96 415.745 105.28C416.385 105.52 417.045 105.72 417.645 105.88ZM420.825 102.2C420.825 103.12 420.305 104.08 419.225 104.78C418.645 104.6 418.065 104.46 417.565 104.32C416.005 103.84 414.165 103.42 414.165 101.66C414.165 100.58 415.365 99.7199 417.405 99.7199C419.645 99.7199 420.825 100.86 420.825 102.2Z" fill="#333333"/>
<path d="M641.118 98.3999L637.818 99.6599V101.26L640.678 100.18V110.4H637.818V112H644.898V110.4H642.358V98.3999H641.118Z" fill="#333333"/>
<path d="M653.272 98.3999L645.852 107.48V108.98H653.432V112H655.092V108.98H657.652V107.42H655.092V98.3999H653.272ZM653.432 107.42H647.912L653.432 100.66V107.42Z" fill="#333333"/>
<path d="M183.589 145.4L183.149 152.7C184.189 152.32 185.469 152.06 186.669 152.06C188.789 152.06 190.709 152.68 190.709 154.9C190.709 156.74 189.149 157.68 186.929 157.68C185.469 157.68 183.929 157.34 182.769 156.72V158.32C183.949 158.9 185.549 159.24 187.129 159.24C190.089 159.24 192.409 157.66 192.409 154.9C192.409 151.64 189.809 150.54 187.249 150.54C186.449 150.54 185.649 150.64 184.929 150.84L185.169 147H191.749V145.4H183.589Z" fill="#333333"/>
<path d="M413.266 145.4L409.966 146.66V148.26L412.826 147.18V157.4H409.966V159H417.046V157.4H414.506V145.4H413.266Z" fill="#333333"/>
<path d="M421.86 145.4L418.56 146.66V148.26L421.42 147.18V157.4H418.56V159H425.64V157.4H423.1V145.4H421.86Z" fill="#333333"/>
<path d="M642.309 145.4L639.009 146.66V148.26L641.869 147.18V157.4H639.009V159H646.089V157.4H643.549V145.4H642.309Z" fill="#333333"/>
<path d="M646.829 145.4V147H654.789L649.149 159H650.949L656.629 146.92V145.4H646.829Z" fill="#333333"/>
</svg>
